<svg id="svg" version="1.1" xmlns="http://www.w3.org/2000/svg" xmlns:xlink="http://www.w3.org/1999/xlink" width="400" height="400" viewBox="0, 0, 400,400"><g id="svgg"><path id="path0" d="M29.755 0.397 C 17.066 2.271,4.293 14.330,0.729 27.800 C 0.294 29.444,0.200 60.959,0.200 205.000 L 0.200 380.200 1.068 383.400 C 3.281 391.552,8.256 396.627,16.270 398.908 L 19.400 399.799 118.199 399.907 C 223.402 400.023,219.856 400.087,222.717 398.014 C 228.419 393.883,226.773 380.858,220.000 376.516 C 219.230 376.023,218.438 375.479,218.240 375.309 C 218.042 375.139,175.944 375.046,124.689 375.102 C 24.200 375.211,29.161 375.319,26.965 372.990 C 24.673 370.560,24.800 380.747,24.800 200.000 C 24.800 18.695,24.664 29.363,27.013 27.013 C 29.363 24.664,18.695 24.800,200.000 24.800 C 381.305 24.800,370.637 24.664,372.987 27.013 C 375.319 29.345,375.200 23.209,375.200 141.517 C 375.200 223.600,375.316 251.422,375.664 252.440 C 377.605 258.127,384.669 264.400,389.131 264.400 C 393.216 264.400,398.289 258.521,399.581 252.288 C 399.888 250.811,399.983 216.427,399.907 134.800 L 399.800 19.400 398.909 16.270 C 396.625 8.249,391.429 3.180,383.179 0.922 C 380.438 0.171,34.758 -0.341,29.755 0.397 M121.214 75.345 C 121.025 75.535,120.134 75.620,119.235 75.535 C 118.336 75.449,117.600 75.498,117.600 75.644 C 117.600 75.790,116.745 76.037,115.700 76.193 C 105.491 77.721,93.758 85.273,86.483 95.000 C 82.588 100.206,78.006 111.067,78.001 115.100 C 78.000 115.595,77.865 116.000,77.700 116.000 C 77.535 116.000,77.462 116.900,77.539 118.000 C 77.615 119.100,77.522 120.000,77.333 120.000 C 77.144 120.000,76.989 121.440,76.989 123.200 C 76.989 124.960,77.127 126.400,77.295 126.400 C 77.463 126.400,77.600 127.010,77.600 127.756 C 77.600 139.784,87.967 156.453,99.894 163.600 C 104.436 166.321,104.531 165.971,98.700 167.982 C 79.884 174.471,64.634 186.740,54.582 203.475 C 52.177 207.479,48.734 214.730,48.170 216.978 C 48.029 217.540,47.742 218.000,47.533 218.000 C 47.324 218.000,47.256 218.168,47.383 218.372 C 47.509 218.577,47.438 218.853,47.224 218.985 C 47.010 219.117,46.936 219.490,47.060 219.813 C 47.184 220.136,47.125 220.400,46.929 220.400 C 46.732 220.400,46.562 220.715,46.549 221.100 C 46.537 221.485,45.959 223.920,45.264 226.511 C 43.717 232.276,43.718 232.108,45.242 235.158 C 46.572 237.820,48.391 239.378,50.707 239.841 C 51.418 239.984,52.000 240.257,52.000 240.450 C 52.000 240.643,52.360 240.800,52.800 240.800 C 53.240 240.800,53.600 240.643,53.600 240.451 C 53.600 240.259,54.275 239.994,55.100 239.861 C 57.655 239.450,61.200 235.704,61.200 233.416 C 61.200 233.077,61.374 232.800,61.587 232.800 C 61.801 232.800,61.877 232.546,61.758 232.235 C 60.772 229.667,66.837 215.258,72.000 207.904 C 81.138 194.887,100.519 182.281,112.048 181.857 C 112.899 181.826,113.596 181.645,113.598 181.455 C 113.599 181.265,114.140 181.188,114.800 181.285 C 115.460 181.382,116.000 181.289,116.000 181.079 C 116.000 180.862,116.779 180.784,117.800 180.899 C 118.790 181.010,119.600 180.944,119.600 180.751 C 119.600 180.558,122.120 180.400,125.200 180.400 C 128.280 180.400,130.800 180.555,130.800 180.745 C 130.800 180.934,131.251 181.003,131.802 180.898 C 133.033 180.662,140.400 181.949,140.400 182.400 C 140.400 182.579,140.760 182.631,141.200 182.516 C 141.640 182.401,142.000 182.502,142.000 182.741 C 142.000 182.980,142.237 183.084,142.527 182.973 C 143.157 182.731,149.092 184.771,153.000 186.572 C 169.430 194.146,182.879 210.259,187.830 228.301 C 188.389 230.337,188.735 232.182,188.599 232.401 C 188.464 232.620,188.506 232.800,188.693 232.800 C 188.881 232.800,189.250 233.609,189.515 234.598 C 191.572 242.289,203.811 242.061,205.466 234.300 C 205.594 233.695,205.839 233.200,206.009 233.200 C 206.354 233.200,206.326 230.714,205.978 230.400 C 205.856 230.290,205.443 228.717,205.060 226.905 C 199.421 200.231,178.118 176.869,151.198 167.838 C 145.854 166.045,145.922 166.210,149.620 163.988 C 157.601 159.191,163.679 152.613,167.903 144.200 C 169.219 141.579,171.600 134.780,171.600 133.644 C 171.600 133.253,171.721 132.812,171.870 132.664 C 172.018 132.516,172.189 131.901,172.250 131.297 C 172.429 129.535,172.648 127.582,172.978 124.800 C 173.561 119.882,171.207 108.989,168.177 102.586 C 163.212 92.095,153.155 82.607,142.686 78.538 C 141.098 77.921,139.740 77.277,139.666 77.106 C 139.592 76.935,139.383 76.887,139.202 76.999 C 138.785 77.257,134.800 76.353,134.800 76.001 C 134.800 75.856,134.260 75.818,133.600 75.915 C 132.940 76.012,132.400 75.922,132.400 75.715 C 132.400 75.508,131.862 75.417,131.205 75.514 C 130.548 75.610,129.693 75.562,129.305 75.406 C 128.271 74.991,121.618 74.941,121.214 75.345 M239.900 92.000 C 239.845 92.110,238.956 92.624,237.925 93.142 C 235.060 94.582,233.800 96.677,233.800 100.000 C 233.800 103.323,235.060 105.418,237.925 106.858 C 238.956 107.376,239.890 107.890,240.000 108.000 C 240.110 108.110,255.860 108.200,275.000 108.200 C 294.140 108.200,309.890 108.110,310.000 108.000 C 310.110 107.890,311.044 107.376,312.075 106.858 C 317.588 104.087,317.877 96.669,312.601 93.400 L 310.663 92.200 275.332 92.000 C 255.899 91.890,239.955 91.890,239.900 92.000 M134.581 93.926 C 140.426 95.941,146.096 99.975,149.477 104.524 C 151.591 107.368,154.565 113.393,154.255 114.202 C 154.139 114.502,154.230 114.810,154.457 114.886 C 154.684 114.961,154.899 115.782,154.935 116.709 C 154.971 117.637,155.105 118.396,155.234 118.398 C 155.363 118.399,155.461 120.560,155.452 123.200 C 155.443 125.840,155.282 128.000,155.094 128.000 C 154.906 128.000,154.869 128.189,155.012 128.419 C 155.906 129.866,152.065 138.713,148.815 142.690 C 144.085 148.477,133.364 154.468,129.531 153.466 C 129.129 153.361,128.800 153.465,128.800 153.696 C 128.800 154.445,119.765 153.775,116.600 152.791 C 88.671 144.107,86.969 105.456,114.035 94.524 C 120.003 92.113,128.596 91.863,134.581 93.926 M240.570 141.971 C 231.589 144.159,231.297 155.579,240.163 157.878 C 242.767 158.554,306.422 158.644,309.534 157.977 C 317.416 156.286,318.908 146.846,311.907 142.967 L 309.800 141.800 275.800 141.735 C 257.100 141.700,241.246 141.806,240.570 141.971 M238.124 193.013 C 232.169 195.981,232.127 203.999,238.052 206.951 L 240.157 208.000 291.579 207.996 L 343.000 207.992 345.096 207.016 C 351.362 204.099,351.184 195.730,344.793 192.831 C 343.020 192.027,342.414 192.017,291.579 192.009 L 240.157 192.000 238.124 193.013 M315.655 251.748 C 311.887 253.111,309.200 257.113,309.649 260.693 C 310.132 264.548,307.941 262.247,345.920 298.800 C 355.863 308.370,363.999 316.336,363.999 316.502 C 364.000 316.669,334.320 316.802,298.045 316.798 C 261.770 316.794,231.755 316.896,231.345 317.025 C 225.413 318.887,223.362 325.272,227.080 330.300 C 229.254 333.241,222.692 332.988,299.700 333.106 C 337.705 333.164,368.800 333.354,368.800 333.529 C 368.800 333.704,367.855 334.664,366.700 335.663 C 365.545 336.661,362.350 339.511,359.600 341.996 C 356.850 344.480,351.450 349.320,347.600 352.750 C 343.750 356.180,337.720 361.608,334.200 364.812 C 330.680 368.015,324.650 373.445,320.800 376.877 C 316.950 380.310,313.134 383.812,312.320 384.659 C 303.764 393.563,317.147 405.396,326.200 396.932 C 326.860 396.315,331.360 392.129,336.200 387.630 C 346.634 377.931,361.787 363.795,366.003 359.827 C 367.655 358.272,375.340 351.093,383.081 343.873 C 402.285 325.961,402.591 325.095,392.894 316.151 C 390.538 313.978,385.545 309.320,381.799 305.800 C 378.053 302.280,368.605 293.460,360.804 286.200 C 353.003 278.940,343.453 270.030,339.581 266.400 C 327.234 254.823,324.965 252.835,323.163 252.018 C 321.159 251.108,317.760 250.986,315.655 251.748 " stroke="none" fill="#040404" fill-rule="evenodd"></path><path id="path1" d="M386.833 1.751 C 387.242 2.121,390.400 3.595,390.400 3.416 C 390.400 3.189,387.381 1.600,386.949 1.600 C 386.794 1.600,386.742 1.668,386.833 1.751 M16.299 5.161 C 14.647 6.239,13.156 7.347,12.986 7.622 C 12.602 8.244,13.248 7.887,15.200 6.398 C 15.970 5.812,17.410 4.853,18.400 4.269 C 19.390 3.685,19.998 3.206,19.751 3.204 C 19.505 3.202,17.951 4.082,16.299 5.161 M393.583 6.100 C 395.241 7.866,395.600 8.184,395.600 7.883 C 395.600 7.819,394.745 6.964,393.700 5.983 L 391.800 4.200 393.583 6.100 M10.008 10.192 C 9.041 11.177,8.340 12.073,8.449 12.182 C 8.559 12.292,9.531 11.486,10.609 10.391 C 11.688 9.296,12.389 8.400,12.168 8.400 C 11.947 8.400,10.975 9.206,10.008 10.192 M397.078 10.995 C 397.444 11.762,397.814 12.319,397.901 12.232 C 398.084 12.049,396.870 9.600,396.596 9.600 C 396.495 9.600,396.712 10.228,397.078 10.995 M7.106 13.500 C 6.092 14.649,3.200 19.290,3.204 19.762 C 3.206 20.003,3.685 19.390,4.269 18.400 C 4.853 17.410,5.812 15.970,6.398 15.200 C 8.105 12.962,8.572 11.840,7.106 13.500 M116.100 25.500 C 162.245 25.556,237.755 25.556,283.900 25.500 C 330.045 25.444,292.290 25.398,200.000 25.398 C 107.710 25.398,69.955 25.444,116.100 25.500 M25.398 200.000 C 25.398 292.290,25.444 330.045,25.500 283.900 C 25.556 237.755,25.556 162.245,25.500 116.100 C 25.444 69.955,25.398 107.710,25.398 200.000 M374.498 142.100 C 374.444 202.325,374.535 251.600,374.700 251.600 C 374.968 251.600,374.967 145.374,374.697 63.600 C 374.641 46.550,374.551 81.875,374.498 142.100 M122.400 74.762 C 122.400 75.192,127.399 75.135,127.833 74.700 C 127.998 74.535,126.843 74.400,125.267 74.400 C 123.690 74.400,122.400 74.563,122.400 74.762 M142.400 77.957 C 142.400 78.401,143.631 78.903,143.946 78.588 C 144.073 78.461,143.912 78.189,143.588 77.984 C 142.840 77.511,142.400 77.501,142.400 77.957 M104.812 78.784 C 104.488 78.989,104.327 79.261,104.454 79.388 C 104.769 79.703,106.000 79.201,106.000 78.757 C 106.000 78.301,105.560 78.311,104.812 78.784 M144.400 78.714 C 144.400 78.887,145.525 79.596,146.900 80.291 C 148.275 80.985,150.165 82.024,151.100 82.599 C 152.035 83.175,152.800 83.558,152.800 83.452 C 152.800 83.345,151.675 82.581,150.300 81.753 C 148.925 80.926,147.710 80.128,147.600 79.980 C 147.042 79.231,144.400 78.185,144.400 78.714 M98.483 82.457 C 97.759 82.920,97.250 83.383,97.352 83.485 C 97.454 83.588,98.224 83.205,99.062 82.636 C 100.879 81.401,100.375 81.245,98.483 82.457 M93.762 86.058 C 93.005 86.910,93.006 86.913,93.878 86.456 C 94.850 85.946,95.449 85.200,94.886 85.200 C 94.687 85.200,94.181 85.586,93.762 86.058 M90.806 88.594 C 90.063 89.361,89.544 90.077,89.653 90.187 C 89.763 90.296,90.552 89.669,91.407 88.793 C 92.263 87.917,92.781 87.200,92.560 87.200 C 92.338 87.200,91.549 87.827,90.806 88.594 M158.400 88.319 C 158.400 88.721,159.718 90.000,160.131 90.000 C 160.692 90.000,160.338 89.373,159.387 88.681 C 158.844 88.286,158.400 88.123,158.400 88.319 M161.200 91.066 C 161.200 91.280,161.734 92.073,162.388 92.828 C 163.041 93.583,163.761 94.417,163.988 94.683 C 164.214 94.949,164.400 95.271,164.400 95.400 C 164.400 95.528,164.760 96.020,165.200 96.492 C 165.640 96.964,166.000 97.587,166.000 97.875 C 166.000 98.164,166.152 98.400,166.339 98.400 C 166.525 98.400,166.873 98.805,167.112 99.300 C 167.351 99.795,167.558 99.987,167.573 99.726 C 167.588 99.466,166.538 97.665,165.240 95.725 C 162.941 92.286,161.200 90.280,161.200 91.066 M86.699 93.500 C 84.646 96.201,83.460 98.112,82.151 100.824 C 80.575 104.092,81.104 103.628,82.940 100.132 C 83.884 98.334,85.104 96.264,85.652 95.532 C 86.199 94.799,87.153 93.525,87.771 92.700 C 88.389 91.875,88.794 91.200,88.671 91.200 C 88.548 91.200,87.660 92.235,86.699 93.500 M236.697 92.779 C 235.007 93.851,232.799 96.932,233.336 97.469 C 233.441 97.574,233.641 97.300,233.781 96.860 C 234.137 95.739,237.160 92.789,238.600 92.157 C 239.260 91.868,239.520 91.624,239.178 91.616 C 238.836 91.607,237.720 92.131,236.697 92.779 M313.200 93.029 C 313.200 93.237,313.573 93.640,314.028 93.925 C 314.484 94.209,315.292 95.377,315.824 96.521 C 316.357 97.664,316.794 98.357,316.796 98.060 C 316.803 97.091,315.588 94.938,314.382 93.782 C 313.732 93.160,313.200 92.821,313.200 93.029 M137.163 95.622 C 138.572 96.274,139.791 96.742,139.871 96.662 C 140.046 96.487,135.450 94.392,134.950 94.418 C 134.757 94.428,135.753 94.970,137.163 95.622 M107.795 98.150 C 105.367 99.793,101.843 103.176,102.193 103.526 C 102.333 103.666,103.472 102.723,104.724 101.430 C 105.976 100.138,107.675 98.633,108.500 98.087 C 109.808 97.221,110.264 96.800,109.895 96.800 C 109.837 96.800,108.892 97.408,107.795 98.150 M232.800 100.000 C 232.800 101.173,232.918 102.016,233.062 101.872 C 233.205 101.728,233.323 100.886,233.323 100.000 C 233.323 99.114,233.205 98.272,233.062 98.128 C 232.918 97.984,232.800 98.827,232.800 100.000 M144.800 100.244 C 144.800 100.460,145.542 101.349,146.449 102.219 C 147.356 103.088,147.911 103.440,147.683 103.000 C 147.151 101.973,144.800 99.725,144.800 100.244 M233.600 103.838 C 233.600 105.047,237.787 108.424,239.235 108.384 C 239.546 108.376,239.258 108.133,238.596 107.844 C 237.262 107.263,234.400 104.646,234.400 104.007 C 234.400 103.783,234.220 103.600,234.000 103.600 C 233.780 103.600,233.600 103.707,233.600 103.838 M99.896 106.100 C 98.310 108.510,97.598 109.807,97.605 110.274 C 97.607 110.453,98.024 109.880,98.530 109.000 C 99.035 108.120,100.023 106.775,100.725 106.011 C 102.019 104.601,102.292 104.000,101.639 104.000 C 101.440 104.000,100.656 104.945,99.896 106.100 M148.400 104.188 C 148.400 104.565,150.950 107.983,151.111 107.822 C 151.202 107.731,150.711 106.834,150.019 105.828 C 148.872 104.160,148.400 103.682,148.400 104.188 M314.500 105.465 C 312.941 107.217,312.795 107.718,314.237 106.370 C 315.150 105.515,316.226 103.996,315.914 104.002 C 315.851 104.003,315.215 104.662,314.500 105.465 M77.200 114.200 C 77.200 114.530,77.380 114.800,77.600 114.800 C 77.820 114.800,78.000 114.530,78.000 114.200 C 78.000 113.870,77.820 113.600,77.600 113.600 C 77.380 113.600,77.200 113.870,77.200 114.200 M76.800 117.200 C 76.800 117.947,76.907 118.053,77.280 117.680 C 77.653 117.307,77.653 117.093,77.280 116.720 C 76.907 116.347,76.800 116.453,76.800 117.200 M154.800 120.600 C 154.800 121.196,154.972 121.541,155.200 121.400 C 155.420 121.264,155.600 120.904,155.600 120.600 C 155.600 120.296,155.420 119.936,155.200 119.800 C 154.972 119.659,154.800 120.004,154.800 120.600 M76.400 123.224 C 76.400 124.204,76.558 124.749,76.800 124.600 C 77.020 124.464,77.200 123.733,77.200 122.976 C 77.200 122.219,77.020 121.600,76.800 121.600 C 76.580 121.600,76.400 122.331,76.400 123.224 M154.800 126.024 C 154.800 126.477,154.980 126.736,155.200 126.600 C 155.420 126.464,155.600 126.093,155.600 125.776 C 155.600 125.459,155.420 125.200,155.200 125.200 C 154.980 125.200,154.800 125.571,154.800 126.024 M76.800 129.176 C 76.800 129.629,76.980 130.000,77.200 130.000 C 77.420 130.000,77.600 129.741,77.600 129.424 C 77.600 129.107,77.420 128.736,77.200 128.600 C 76.980 128.464,76.800 128.723,76.800 129.176 M77.200 131.800 C 77.200 132.130,77.380 132.400,77.600 132.400 C 77.820 132.400,78.000 132.130,78.000 131.800 C 78.000 131.470,77.820 131.200,77.600 131.200 C 77.380 131.200,77.200 131.470,77.200 131.800 M151.594 136.700 C 150.836 138.185,150.153 139.535,150.075 139.700 C 149.997 139.865,150.128 140.000,150.367 140.000 C 150.605 140.000,150.800 139.743,150.800 139.429 C 150.800 139.114,151.042 138.616,151.337 138.320 C 152.091 137.566,152.835 136.101,153.041 134.965 C 153.305 133.506,153.095 133.757,151.594 136.700 M97.624 136.129 C 97.585 136.673,99.649 140.000,100.026 140.000 C 100.218 140.000,99.976 139.392,99.488 138.650 C 99.000 137.907,98.386 136.962,98.124 136.550 C 97.861 136.137,97.636 135.948,97.624 136.129 M79.669 140.300 C 81.024 143.291,82.794 146.800,82.948 146.800 C 83.058 146.800,82.530 145.462,81.774 143.826 C 81.018 142.191,80.400 140.661,80.400 140.426 C 80.400 140.192,80.205 140.000,79.967 140.000 C 79.728 140.000,79.594 140.135,79.669 140.300 M169.265 142.217 C 168.595 143.688,168.723 144.002,169.447 142.665 C 169.786 142.040,169.988 141.454,169.896 141.363 C 169.805 141.271,169.521 141.656,169.265 142.217 M101.400 142.400 C 101.798 142.840,102.304 143.200,102.524 143.200 C 102.744 143.200,102.598 142.840,102.200 142.400 C 101.802 141.960,101.296 141.600,101.076 141.600 C 100.856 141.600,101.002 141.960,101.400 142.400 M148.000 142.600 C 147.483 143.150,147.227 143.594,147.430 143.587 C 147.772 143.576,149.421 141.600,149.088 141.600 C 149.006 141.600,148.517 142.050,148.000 142.600 M237.400 142.466 C 235.641 143.436,233.018 146.400,233.918 146.400 C 234.109 146.400,234.520 145.919,234.832 145.331 C 235.145 144.742,236.200 143.752,237.178 143.131 C 238.888 142.044,239.051 141.555,237.400 142.466 M312.400 142.845 C 313.170 143.308,314.115 143.965,314.500 144.306 C 314.885 144.646,315.200 144.807,315.200 144.665 C 315.200 144.292,311.964 142.000,311.440 142.001 C 311.198 142.002,311.630 142.382,312.400 142.845 M168.000 144.800 C 167.744 145.278,167.625 145.759,167.735 145.869 C 167.845 145.979,168.144 145.678,168.400 145.200 C 168.656 144.722,168.775 144.241,168.665 144.131 C 168.555 144.021,168.256 144.322,168.000 144.800 M104.999 145.998 C 105.134 146.217,105.640 146.603,106.122 146.856 C 106.994 147.313,106.995 147.310,106.238 146.458 C 105.475 145.598,104.536 145.250,104.999 145.998 M166.253 147.991 C 165.121 149.702,164.825 150.718,165.843 149.400 C 166.582 148.444,167.685 146.400,167.463 146.400 C 167.377 146.400,166.832 147.116,166.253 147.991 M107.600 148.020 C 108.987 148.961,109.778 149.235,108.800 148.436 C 108.250 147.986,107.620 147.617,107.400 147.615 C 107.180 147.613,107.270 147.796,107.600 148.020 M232.909 150.000 C 232.909 150.990,232.987 151.395,233.082 150.900 C 233.178 150.405,233.178 149.595,233.082 149.100 C 232.987 148.605,232.909 149.010,232.909 150.000 M110.000 149.396 C 110.000 149.670,112.449 150.884,112.632 150.701 C 112.719 150.614,112.162 150.244,111.395 149.878 C 110.628 149.512,110.000 149.295,110.000 149.396 M137.600 150.400 C 136.830 150.822,136.380 151.166,136.600 151.166 C 136.820 151.166,137.630 150.822,138.400 150.400 C 139.170 149.978,139.620 149.634,139.400 149.634 C 139.180 149.634,138.370 149.978,137.600 150.400 M164.400 150.707 C 164.400 150.876,163.576 151.956,162.569 153.107 C 161.562 154.258,160.920 155.200,161.142 155.200 C 161.365 155.200,162.226 154.345,163.056 153.300 C 165.314 150.456,165.349 150.400,164.849 150.400 C 164.602 150.400,164.400 150.538,164.400 150.707 M124.105 153.487 C 124.714 153.579,125.614 153.577,126.105 153.482 C 126.597 153.387,126.100 153.311,125.000 153.314 C 123.900 153.317,123.497 153.395,124.105 153.487 M235.025 155.636 C 235.671 156.315,236.686 157.125,237.280 157.436 C 239.127 158.401,239.045 158.056,237.139 156.848 C 236.140 156.214,235.210 155.404,235.074 155.048 C 234.937 154.691,234.606 154.400,234.338 154.400 C 234.070 154.400,234.379 154.956,235.025 155.636 M313.441 156.427 C 312.583 157.072,312.050 157.600,312.256 157.600 C 312.462 157.600,313.253 157.067,314.015 156.416 C 315.787 154.902,315.461 154.908,313.441 156.427 M90.600 157.200 C 91.232 157.860,91.930 158.400,92.150 158.400 C 92.370 158.400,92.032 157.860,91.400 157.200 C 90.768 156.540,90.070 156.000,89.850 156.000 C 89.630 156.000,89.968 156.540,90.600 157.200 M156.401 159.398 C 155.886 159.948,155.552 160.485,155.660 160.594 C 155.768 160.702,156.254 160.252,156.740 159.595 C 157.817 158.139,157.666 158.052,156.401 159.398 M93.352 159.671 C 94.425 161.308,98.000 163.715,98.000 162.800 C 98.000 162.580,97.749 162.400,97.443 162.400 C 97.136 162.400,96.782 162.130,96.655 161.800 C 96.529 161.470,96.149 161.200,95.813 161.200 C 95.476 161.200,95.200 161.032,95.200 160.827 C 95.200 160.622,94.637 160.054,93.949 159.564 L 92.699 158.673 93.352 159.671 M154.000 161.400 C 153.717 161.741,153.576 162.109,153.686 162.219 C 153.796 162.329,154.117 162.141,154.400 161.800 C 154.683 161.459,154.824 161.091,154.714 160.981 C 154.604 160.871,154.283 161.059,154.000 161.400 M98.400 163.586 C 98.400 164.075,99.989 164.944,100.305 164.628 C 100.435 164.498,100.195 164.129,99.771 163.809 C 98.866 163.124,98.400 163.048,98.400 163.586 M149.900 164.229 C 149.075 164.770,148.400 165.304,148.400 165.416 C 148.400 165.676,150.350 164.654,151.400 163.843 C 152.674 162.860,151.550 163.149,149.900 164.229 M101.855 165.800 C 102.130 166.516,102.644 166.576,103.038 165.938 C 103.215 165.652,103.148 165.585,102.862 165.762 C 102.608 165.919,102.400 165.857,102.400 165.624 C 102.400 165.391,102.226 165.200,102.013 165.200 C 101.799 165.200,101.729 165.470,101.855 165.800 M90.800 170.200 C 90.250 170.514,89.980 170.772,90.200 170.772 C 90.420 170.772,91.050 170.514,91.600 170.200 C 92.150 169.886,92.420 169.628,92.200 169.628 C 91.980 169.628,91.350 169.886,90.800 170.200 M162.200 171.871 C 163.740 172.658,165.114 173.482,165.254 173.700 C 165.393 173.919,165.753 174.013,166.054 173.910 C 166.550 173.739,160.432 170.374,159.709 170.420 C 159.539 170.430,160.660 171.084,162.200 171.871 M84.300 173.429 C 83.695 173.757,83.200 174.110,83.200 174.213 C 83.200 174.632,83.967 174.354,84.856 173.613 C 85.981 172.676,85.799 172.615,84.300 173.429 M167.676 174.876 C 169.192 176.179,171.600 177.626,171.600 177.235 C 171.600 176.885,169.263 175.252,167.600 174.440 C 166.609 173.956,166.609 173.960,167.676 174.876 M76.995 177.913 C 75.892 178.731,74.272 180.098,73.395 180.951 L 71.800 182.501 73.748 181.151 C 74.819 180.408,76.113 179.414,76.623 178.942 C 77.133 178.470,77.647 178.181,77.766 178.299 C 77.884 178.418,78.095 178.219,78.233 177.857 C 78.372 177.496,78.736 177.200,79.043 177.200 C 79.349 177.200,79.600 177.020,79.600 176.800 C 79.600 176.139,79.097 176.354,76.995 177.913 M172.000 177.546 C 172.000 177.766,172.540 178.330,173.200 178.800 C 173.860 179.270,174.400 179.474,174.400 179.254 C 174.400 179.034,173.860 178.470,173.200 178.000 C 172.540 177.530,172.000 177.326,172.000 177.546 M122.800 180.800 C 122.383 181.069,123.117 181.188,125.200 181.188 C 127.283 181.188,128.017 181.069,127.600 180.800 C 127.270 180.587,126.190 180.412,125.200 180.412 C 124.210 180.412,123.130 180.587,122.800 180.800 M117.400 181.200 C 117.264 181.420,117.523 181.600,117.976 181.600 C 118.429 181.600,118.800 181.420,118.800 181.200 C 118.800 180.980,118.541 180.800,118.224 180.800 C 117.907 180.800,117.536 180.980,117.400 181.200 M131.200 181.200 C 131.200 181.420,131.560 181.600,132.000 181.600 C 132.440 181.600,132.800 181.420,132.800 181.200 C 132.800 180.980,132.440 180.800,132.000 180.800 C 131.560 180.800,131.200 180.980,131.200 181.200 M134.400 181.600 C 134.400 181.820,134.670 182.000,135.000 182.000 C 135.330 182.000,135.600 181.820,135.600 181.600 C 135.600 181.380,135.330 181.200,135.000 181.200 C 134.670 181.200,134.400 181.380,134.400 181.600 M69.775 184.099 L 68.600 185.397 69.800 184.405 C 70.460 183.859,71.171 183.274,71.380 183.106 C 71.616 182.916,71.606 182.800,71.355 182.800 C 71.132 182.800,70.421 183.384,69.775 184.099 M179.600 183.766 C 180.776 185.068,182.601 186.217,181.636 185.047 C 181.325 184.671,180.515 183.979,179.836 183.510 L 178.600 182.658 179.600 183.766 M101.342 185.294 C 101.233 185.469,100.977 185.509,100.772 185.383 C 100.568 185.256,100.400 185.354,100.400 185.600 C 100.400 185.846,100.232 185.944,100.028 185.817 C 99.823 185.691,99.542 185.770,99.404 185.993 C 99.034 186.592,99.984 186.439,101.800 185.609 C 102.976 185.072,103.154 184.891,102.470 184.927 C 101.958 184.953,101.450 185.118,101.342 185.294 M154.769 188.416 C 156.842 189.516,158.781 190.618,159.079 190.865 C 159.376 191.112,159.713 191.220,159.828 191.106 C 160.063 190.870,157.794 189.498,154.111 187.649 C 150.150 185.661,150.628 186.218,154.769 188.416 M186.073 189.834 C 186.897 191.138,190.000 194.554,189.999 194.156 C 189.999 193.960,188.997 192.720,187.772 191.400 C 186.547 190.080,185.783 189.375,186.073 189.834 M63.004 190.796 C 62.374 191.454,61.942 192.075,62.044 192.177 C 62.146 192.279,62.726 191.741,63.332 190.981 C 64.687 189.283,64.536 189.197,63.004 190.796 M89.200 191.600 C 88.210 192.258,87.539 192.797,87.709 192.798 C 88.057 192.800,91.200 190.774,91.200 190.547 C 91.200 190.292,91.042 190.375,89.200 191.600 M236.767 192.735 C 234.630 194.091,232.886 196.400,234.000 196.400 C 234.220 196.400,234.400 196.234,234.400 196.031 C 234.400 195.569,236.741 193.200,237.197 193.200 C 237.382 193.200,237.597 193.010,237.674 192.778 C 237.751 192.546,238.121 192.311,238.496 192.256 C 239.386 192.126,239.906 191.600,239.145 191.600 C 238.821 191.600,237.751 192.111,236.767 192.735 M344.943 192.251 C 346.565 193.130,348.388 194.799,349.254 196.200 C 349.663 196.860,349.998 197.202,349.999 196.960 C 350.002 196.010,347.527 193.179,346.021 192.411 C 344.176 191.469,343.246 191.332,344.943 192.251 M60.500 193.577 C 60.005 193.990,59.600 194.524,59.600 194.764 C 59.600 195.004,59.451 195.200,59.268 195.200 C 58.934 195.200,56.400 198.527,56.400 198.965 C 56.400 199.094,56.580 199.200,56.800 199.200 C 57.020 199.200,57.200 198.949,57.200 198.643 C 57.200 198.336,57.470 197.982,57.800 197.855 C 58.130 197.729,58.400 197.451,58.400 197.237 C 58.400 197.024,58.952 196.253,59.627 195.525 C 60.727 194.337,61.812 192.779,61.514 192.813 C 61.451 192.821,60.995 193.164,60.500 193.577 M190.429 195.000 C 190.429 195.220,190.871 195.940,191.412 196.600 C 191.953 197.260,192.396 197.620,192.396 197.400 C 192.396 197.180,191.953 196.460,191.412 195.800 C 190.871 195.140,190.429 194.780,190.429 195.000 M81.485 197.590 C 80.558 198.464,79.988 199.184,80.219 199.190 C 80.449 199.195,81.341 198.480,82.200 197.600 C 84.223 195.528,83.677 195.521,81.485 197.590 M168.286 197.618 C 169.214 198.577,170.073 199.260,170.196 199.137 C 170.320 199.014,169.561 198.230,168.510 197.395 L 166.600 195.876 168.286 197.618 M192.818 198.200 C 192.818 198.420,193.170 199.050,193.600 199.600 C 194.030 200.150,194.382 200.420,194.382 200.200 C 194.382 199.980,194.030 199.350,193.600 198.800 C 193.170 198.250,192.818 197.980,192.818 198.200 M77.514 201.520 C 75.363 203.819,71.003 209.634,70.129 211.369 C 69.254 213.104,69.939 212.294,72.402 208.679 C 73.572 206.963,75.693 204.301,77.116 202.764 C 78.539 201.227,79.617 199.884,79.512 199.779 C 79.407 199.674,78.508 200.457,77.514 201.520 M170.800 200.239 C 170.800 200.370,171.881 201.657,173.203 203.099 C 174.524 204.541,176.549 207.126,177.703 208.842 C 178.856 210.559,180.034 212.060,180.321 212.177 C 180.652 212.313,180.736 212.210,180.553 211.895 C 179.974 210.904,177.827 207.788,177.419 207.349 C 177.189 207.101,176.730 206.486,176.400 205.983 C 176.070 205.480,175.530 204.775,175.200 204.418 C 174.870 204.060,173.913 202.920,173.073 201.884 C 171.715 200.208,170.800 199.546,170.800 200.239 M54.018 202.766 C 53.773 203.225,53.739 203.600,53.943 203.600 C 54.354 203.600,54.922 202.388,54.642 202.108 C 54.544 202.011,54.264 202.307,54.018 202.766 M349.600 203.061 C 349.600 203.888,346.744 206.744,345.108 207.554 C 344.169 208.019,343.680 208.400,344.022 208.400 C 345.802 208.401,350.710 203.777,349.846 202.912 C 349.711 202.777,349.600 202.844,349.600 203.061 M233.600 203.838 C 233.600 205.047,237.787 208.424,239.235 208.384 C 239.546 208.376,239.255 208.131,238.588 207.841 C 237.178 207.227,234.400 204.714,234.400 204.053 C 234.400 203.804,234.220 203.600,234.000 203.600 C 233.780 203.600,233.600 203.707,233.600 203.838 M52.190 206.100 L 51.560 207.400 52.380 206.456 C 52.831 205.936,53.200 205.351,53.200 205.156 C 53.200 204.456,52.810 204.821,52.190 206.100 M198.691 208.600 C 199.507 210.250,200.316 211.600,200.488 211.600 C 200.982 211.600,200.852 210.909,200.243 210.300 C 199.937 209.994,199.214 208.811,198.636 207.672 C 198.059 206.532,197.501 205.600,197.397 205.600 C 197.292 205.600,197.875 206.950,198.691 208.600 M49.872 210.619 C 48.932 212.589,49.064 212.924,50.047 211.062 C 50.493 210.216,50.787 209.454,50.701 209.367 C 50.614 209.281,50.241 209.844,49.872 210.619 M200.806 213.100 C 200.817 213.647,201.553 214.581,201.788 214.346 C 202.103 214.031,201.601 212.800,201.157 212.800 C 200.961 212.800,200.803 212.935,200.806 213.100 M68.155 214.612 C 67.790 215.169,67.593 215.726,67.716 215.850 C 67.840 215.973,68.229 215.518,68.581 214.837 C 69.352 213.346,69.079 213.202,68.155 214.612 M182.000 215.200 C 182.449 216.080,182.906 216.800,183.016 216.800 C 183.126 216.800,182.849 216.080,182.400 215.200 C 181.951 214.320,181.494 213.600,181.384 213.600 C 181.274 213.600,181.551 214.320,182.000 215.200 M201.882 215.068 C 201.595 215.531,202.263 216.670,202.615 216.318 C 202.757 216.176,202.702 215.753,202.492 215.379 C 202.282 215.004,202.008 214.864,201.882 215.068 M66.418 217.966 C 66.173 218.425,66.139 218.800,66.343 218.800 C 66.754 218.800,67.322 217.588,67.042 217.308 C 66.944 217.211,66.664 217.507,66.418 217.966 M65.389 220.683 C 65.219 221.077,65.029 221.760,64.966 222.200 C 64.904 222.640,65.120 222.394,65.446 221.653 C 65.773 220.913,65.963 220.230,65.870 220.136 C 65.776 220.042,65.560 220.288,65.389 220.683 M206.178 231.235 C 206.031 231.474,206.110 231.870,206.355 232.115 C 206.682 232.442,206.800 232.326,206.800 231.680 C 206.800 230.714,206.592 230.565,206.178 231.235 M203.600 237.973 C 203.050 238.565,202.241 239.250,201.803 239.495 C 201.365 239.740,201.133 240.066,201.287 240.220 C 201.441 240.374,202.430 239.670,203.484 238.655 C 204.538 237.640,205.220 236.829,205.000 236.852 C 204.780 236.876,204.150 237.380,203.600 237.973 M46.446 238.076 C 48.634 240.007,49.284 240.449,49.538 240.174 C 49.682 240.018,49.587 239.814,49.326 239.721 C 49.065 239.627,48.075 239.011,47.126 238.352 C 46.119 237.652,45.836 237.537,46.446 238.076 M191.543 238.778 C 192.502 239.696,193.387 240.347,193.510 240.224 C 193.633 240.101,193.658 239.953,193.567 239.896 C 193.475 239.839,192.590 239.188,191.600 238.450 L 189.800 237.108 191.543 238.778 M56.900 239.288 C 56.405 239.527,56.000 239.875,56.000 240.061 C 56.000 240.594,56.365 240.464,57.292 239.600 C 58.252 238.705,58.198 238.662,56.900 239.288 M195.200 240.800 C 195.200 241.020,195.560 241.200,196.000 241.200 C 196.440 241.200,196.800 241.020,196.800 240.800 C 196.800 240.580,196.440 240.400,196.000 240.400 C 195.560 240.400,195.200 240.580,195.200 240.800 M198.000 240.800 C 198.000 241.020,198.270 241.200,198.600 241.200 C 198.930 241.200,199.200 241.020,199.200 240.800 C 199.200 240.580,198.930 240.400,198.600 240.400 C 198.270 240.400,198.000 240.580,198.000 240.800 M323.116 251.403 C 323.840 251.718,324.709 252.252,325.047 252.590 C 325.386 252.928,326.053 253.410,326.531 253.661 L 327.400 254.116 326.600 253.216 C 325.732 252.238,323.147 250.790,322.316 250.816 C 322.032 250.824,322.392 251.089,323.116 251.403 M375.213 253.320 C 375.188 253.941,376.426 256.000,376.824 256.000 C 377.089 256.000,377.095 255.758,376.843 255.300 C 376.235 254.193,375.227 252.969,375.213 253.320 M310.155 255.012 C 309.790 255.569,309.570 256.104,309.667 256.200 C 309.763 256.297,310.158 255.841,310.544 255.188 C 311.398 253.742,311.081 253.599,310.155 255.012 M328.445 255.500 C 328.507 255.914,333.200 260.197,333.200 259.840 C 333.200 259.420,329.145 255.200,328.742 255.200 C 328.554 255.200,328.420 255.335,328.445 255.500 M379.990 260.190 C 381.180 261.395,382.243 262.291,382.352 262.181 C 382.614 261.919,378.749 258.000,378.229 258.000 C 378.008 258.000,378.801 258.986,379.990 260.190 M308.914 260.200 C 308.917 261.300,308.995 261.703,309.087 261.095 C 309.179 260.486,309.177 259.586,309.082 259.095 C 308.987 258.603,308.911 259.100,308.914 260.200 M395.100 261.406 C 393.470 263.286,393.091 264.184,394.443 262.962 C 395.455 262.047,396.945 260.010,396.744 259.815 C 396.665 259.739,395.925 260.455,395.100 261.406 M336.800 263.400 C 337.995 264.610,339.063 265.600,339.173 265.600 C 339.283 265.600,338.395 264.610,337.200 263.400 C 336.005 262.190,334.937 261.200,334.827 261.200 C 334.717 261.200,335.605 262.190,336.800 263.400 M309.217 262.800 C 309.188 264.025,312.398 268.400,313.326 268.400 C 313.533 268.400,312.946 267.580,312.022 266.578 C 311.099 265.576,310.093 264.181,309.787 263.478 C 309.481 262.775,309.225 262.470,309.217 262.800 M342.022 268.235 C 342.780 269.024,343.940 270.042,344.600 270.497 C 345.344 271.010,344.970 270.466,343.614 269.062 C 342.411 267.818,341.251 266.800,341.035 266.800 C 340.820 266.800,341.263 267.446,342.022 268.235 M315.200 270.118 C 315.200 270.223,317.405 272.345,320.100 274.832 C 324.018 278.447,324.399 278.731,322.000 276.247 C 319.090 273.234,315.200 269.727,315.200 270.118 M348.417 274.231 C 349.398 275.238,350.560 276.249,351.000 276.477 C 351.440 276.706,350.816 275.882,349.614 274.647 C 348.411 273.411,347.249 272.400,347.030 272.400 C 346.812 272.400,347.436 273.224,348.417 274.231 M352.800 277.913 C 352.800 278.084,353.912 279.299,355.271 280.613 L 357.741 283.000 355.422 280.300 C 353.104 277.602,352.800 277.325,352.800 277.913 M331.193 285.756 C 333.499 288.090,335.565 290.000,335.785 290.000 C 336.298 290.000,328.860 282.481,327.800 281.929 C 327.360 281.700,328.887 283.422,331.193 285.756 M360.000 284.969 C 360.770 285.794,361.940 286.844,362.600 287.301 C 363.763 288.107,363.757 288.087,362.400 286.631 C 361.630 285.806,360.460 284.756,359.800 284.299 C 358.637 283.493,358.643 283.513,360.000 284.969 M365.825 290.437 C 366.471 291.118,367.720 292.228,368.600 292.905 C 369.878 293.889,369.720 293.640,367.813 291.668 C 366.499 290.311,365.251 289.200,365.038 289.200 C 364.825 289.200,365.179 289.757,365.825 290.437 M342.716 296.705 C 345.072 299.072,347.081 300.956,347.180 300.892 C 347.413 300.739,339.107 292.400,338.723 292.400 C 338.563 292.400,340.359 294.337,342.716 296.705 M373.000 297.200 C 374.306 298.520,375.555 299.600,375.775 299.600 C 375.995 299.600,375.106 298.520,373.800 297.200 C 372.494 295.880,371.245 294.800,371.025 294.800 C 370.805 294.800,371.694 295.880,373.000 297.200 M378.800 302.561 C 380.397 304.247,382.000 305.506,382.000 305.074 C 382.000 304.989,380.875 303.962,379.500 302.791 L 377.000 300.661 378.800 302.561 M353.793 307.531 C 356.209 309.989,358.365 312.000,358.582 312.000 C 359.090 312.000,354.019 306.847,351.400 304.701 C 350.300 303.800,351.377 305.074,353.793 307.531 M384.030 307.440 C 384.564 308.012,385.720 309.033,386.600 309.709 C 387.998 310.782,387.924 310.651,386.014 308.669 C 384.811 307.421,383.655 306.400,383.444 306.400 C 383.233 306.400,383.497 306.868,384.030 307.440 M390.619 313.634 C 391.488 314.532,392.740 315.640,393.400 316.095 C 394.076 316.562,393.557 315.848,392.213 314.462 C 390.899 313.108,389.648 312.000,389.431 312.000 C 389.215 312.000,389.749 312.735,390.619 313.634 M361.776 314.700 L 362.950 316.000 297.651 316.000 C 254.221 316.000,232.436 316.134,232.600 316.400 C 232.901 316.887,363.600 316.965,363.600 316.478 C 363.600 316.302,362.925 315.537,362.101 314.778 L 360.602 313.400 361.776 314.700 M228.667 317.067 C 228.181 317.553,228.390 317.979,229.000 317.745 C 229.330 317.618,229.600 317.354,229.600 317.157 C 229.600 316.738,229.049 316.684,228.667 317.067 M226.800 318.600 C 226.285 319.148,225.954 319.687,226.064 319.797 C 226.174 319.907,226.685 319.548,227.200 319.000 C 227.715 318.452,228.046 317.913,227.936 317.803 C 227.826 317.693,227.315 318.052,226.800 318.600 M395.616 317.851 C 395.625 318.043,396.184 318.830,396.857 319.600 L 398.082 321.000 397.467 319.771 C 396.841 318.519,395.587 317.218,395.616 317.851 M398.018 329.556 C 397.749 330.206,396.285 331.938,394.764 333.406 C 393.244 334.874,392.000 336.188,392.000 336.327 C 392.000 336.465,393.273 335.323,394.830 333.789 C 397.456 331.200,399.099 328.966,398.683 328.550 C 398.587 328.453,398.287 328.906,398.018 329.556 M226.800 331.132 C 226.800 331.654,229.565 333.368,229.888 333.046 C 230.023 332.911,229.937 332.800,229.697 332.800 C 229.458 332.800,228.708 332.334,228.031 331.764 C 227.354 331.195,226.800 330.910,226.800 331.132 M364.400 336.600 C 363.660 337.363,363.145 338.078,363.255 338.188 C 363.365 338.298,364.060 337.763,364.800 337.000 C 365.540 336.237,366.055 335.522,365.945 335.412 C 365.835 335.302,365.140 335.837,364.400 336.600 M387.900 339.727 C 386.635 340.877,385.600 341.948,385.600 342.109 C 385.600 342.871,386.499 342.195,388.400 340.000 C 389.544 338.680,390.416 337.608,390.340 337.618 C 390.263 337.628,389.165 338.577,387.900 339.727 M360.259 340.437 C 359.412 341.297,358.882 342.000,359.081 342.000 C 359.538 342.000,362.206 339.271,361.973 339.043 C 361.878 338.950,361.107 339.577,360.259 340.437 M355.978 344.266 L 354.600 345.733 355.836 344.885 C 357.264 343.905,358.267 342.800,357.727 342.800 C 357.524 342.800,356.737 343.460,355.978 344.266 M381.846 345.449 C 379.772 347.156,379.133 348.000,379.914 348.000 C 380.086 348.000,381.205 347.010,382.400 345.800 C 385.052 343.114,384.843 342.982,381.846 345.449 M352.181 347.671 L 350.600 349.343 352.294 348.042 C 354.078 346.673,354.675 346.000,354.105 346.000 C 353.916 346.000,353.051 346.752,352.181 347.671 M375.680 351.256 C 374.515 352.377,373.625 353.358,373.704 353.437 C 373.783 353.516,374.820 352.595,376.010 351.390 C 378.733 348.633,378.505 348.540,375.680 351.256 M348.378 351.066 L 347.000 352.533 348.236 351.685 C 349.664 350.705,350.667 349.600,350.127 349.600 C 349.924 349.600,349.137 350.260,348.378 351.066 M344.394 354.606 C 343.651 355.373,343.225 356.000,343.447 356.000 C 343.964 356.000,346.207 353.673,345.943 353.410 C 345.834 353.301,345.137 353.839,344.394 354.606 M369.400 357.018 C 368.080 358.217,367.186 359.199,367.414 359.199 C 367.641 359.200,368.805 358.210,370.000 357.000 C 372.765 354.200,372.491 354.209,369.400 357.018 M340.193 358.407 C 339.337 359.283,338.819 360.000,339.040 360.000 C 339.559 360.000,342.209 357.276,341.947 357.013 C 341.837 356.904,341.048 357.531,340.193 358.407 M363.400 362.571 C 362.080 363.754,361.142 364.867,361.315 365.043 C 361.488 365.219,362.746 364.246,364.111 362.881 C 367.156 359.836,366.682 359.629,363.400 362.571 M335.978 362.266 L 334.600 363.733 335.836 362.885 C 337.264 361.905,338.267 360.800,337.727 360.800 C 337.524 360.800,336.737 361.460,335.978 362.266 M332.181 365.671 L 330.600 367.343 332.294 366.042 C 334.078 364.673,334.675 364.000,334.105 364.000 C 333.916 364.000,333.051 364.752,332.181 365.671 M357.652 368.034 C 356.470 369.136,355.573 370.106,355.657 370.190 C 355.741 370.274,356.827 369.366,358.070 368.172 C 359.313 366.977,360.210 366.007,360.065 366.015 C 359.919 366.024,358.833 366.932,357.652 368.034 M328.181 369.269 L 326.600 370.937 328.500 369.420 C 329.545 368.586,330.400 367.835,330.400 367.752 C 330.400 367.240,329.557 367.816,328.181 369.269 M26.001 370.669 C 26.001 370.927,26.469 371.696,27.043 372.378 C 28.153 373.698,29.600 374.660,29.600 374.078 C 29.600 373.886,29.150 373.523,28.599 373.272 C 28.049 373.022,27.239 372.228,26.801 371.508 C 26.362 370.789,26.002 370.411,26.001 370.669 M324.373 372.672 L 323.000 374.133 324.288 373.248 C 325.625 372.329,326.200 371.667,325.913 371.379 C 325.821 371.287,325.128 371.869,324.373 372.672 M351.435 373.818 C 350.135 375.018,349.241 376.000,349.449 376.000 C 349.657 376.000,350.805 375.010,352.000 373.800 C 354.773 370.992,354.488 371.001,351.435 373.818 M58.000 374.697 C 126.932 374.967,217.600 374.969,217.600 374.700 C 217.600 374.535,175.795 374.444,124.700 374.497 C 73.605 374.550,43.590 374.640,58.000 374.697 M320.473 376.052 C 319.743 376.704,319.205 377.416,319.278 377.635 C 319.351 377.854,320.026 377.398,320.778 376.623 C 322.483 374.863,322.263 374.452,320.473 376.052 M220.000 375.820 C 220.000 376.291,222.820 378.913,223.064 378.669 C 223.206 378.527,222.710 377.780,221.961 377.010 C 220.699 375.711,220.000 375.287,220.000 375.820 M345.489 379.310 C 344.218 380.459,343.183 381.535,343.189 381.700 C 343.216 382.442,344.032 381.826,345.967 379.600 C 347.116 378.280,347.998 377.204,347.927 377.210 C 347.857 377.215,346.760 378.160,345.489 379.310 M316.000 380.000 C 315.303 380.880,314.832 381.600,314.952 381.600 C 315.347 381.600,318.000 379.127,318.000 378.759 C 318.000 377.983,317.208 378.474,316.000 380.000 M312.000 383.800 C 309.720 386.123,310.136 386.126,312.653 383.804 C 313.724 382.817,314.412 382.007,314.183 382.004 C 313.954 382.002,312.972 382.810,312.000 383.800 M340.160 384.341 C 338.450 385.593,336.978 387.114,337.236 387.364 C 337.326 387.451,338.480 386.554,339.800 385.371 C 342.434 383.010,342.590 382.564,340.160 384.341 M2.000 387.753 C 2.000 388.182,3.190 390.400,3.421 390.400 C 3.531 390.400,3.323 389.815,2.959 389.100 C 2.217 387.640,2.000 387.336,2.000 387.753 M333.000 391.018 C 331.680 392.217,330.786 393.199,331.014 393.199 C 331.241 393.200,332.405 392.210,333.600 391.000 C 336.365 388.200,336.091 388.209,333.000 391.018 M308.909 390.800 C 308.909 391.790,308.987 392.195,309.082 391.700 C 309.178 391.205,309.178 390.395,309.082 389.900 C 308.987 389.405,308.909 389.810,308.909 390.800 M5.600 393.347 C 6.370 394.184,7.540 395.243,8.200 395.700 C 9.609 396.674,9.356 396.404,6.400 393.778 C 4.642 392.217,4.482 392.130,5.600 393.347 M327.400 396.230 C 326.300 397.220,324.770 398.375,324.000 398.797 C 323.230 399.219,322.790 399.573,323.022 399.582 C 323.728 399.612,326.917 397.391,328.378 395.852 C 330.245 393.886,329.825 394.049,327.400 396.230 M224.548 396.592 C 224.288 397.268,222.021 398.775,220.219 399.470 C 219.548 399.728,219.258 399.953,219.574 399.970 C 220.557 400.022,223.395 398.458,224.599 397.201 C 225.232 396.540,225.530 396.000,225.262 396.000 C 224.994 396.000,224.673 396.266,224.548 396.592 M311.951 397.616 C 312.915 398.487,313.895 399.200,314.130 399.200 C 314.365 399.200,313.802 398.644,312.879 397.965 C 311.955 397.286,311.200 396.566,311.200 396.365 C 311.200 396.164,310.975 396.007,310.700 396.016 C 310.425 396.025,310.988 396.745,311.951 397.616 M9.600 396.596 C 9.600 396.870,12.049 398.084,12.232 397.901 C 12.319 397.814,11.762 397.444,10.995 397.078 C 10.228 396.712,9.600 396.495,9.600 396.596 " stroke="none" fill="#c2c2c2" fill-rule="evenodd"></path><path id="path2" d="M16.693 5.414 C 15.872 5.972,15.200 6.515,15.200 6.620 C 15.200 6.725,15.920 6.335,16.800 5.753 C 18.197 4.828,18.670 4.400,18.293 4.400 C 18.234 4.400,17.514 4.856,16.693 5.414 M5.693 16.300 C 4.657 17.796,4.321 18.400,4.523 18.400 C 4.617 18.400,5.170 17.680,5.753 16.800 C 6.936 15.012,6.884 14.579,5.693 16.300 M120.200 75.200 C 120.064 75.420,120.223 75.600,120.553 75.600 C 120.883 75.600,121.264 75.420,121.400 75.200 C 121.536 74.980,121.377 74.800,121.047 74.800 C 120.717 74.800,120.336 74.980,120.200 75.200 M129.000 75.200 C 129.136 75.420,129.517 75.600,129.847 75.600 C 130.177 75.600,130.336 75.420,130.200 75.200 C 130.064 74.980,129.683 74.800,129.353 74.800 C 129.023 74.800,128.864 74.980,129.000 75.200 M158.400 89.000 C 159.817 90.430,161.067 91.600,161.177 91.600 C 161.287 91.600,160.217 90.430,158.800 89.000 C 157.383 87.570,156.133 86.400,156.023 86.400 C 155.913 86.400,156.983 87.570,158.400 89.000 M88.799 91.700 C 88.210 92.504,88.113 92.784,88.545 92.433 C 89.201 91.900,90.193 90.400,89.889 90.400 C 89.813 90.400,89.322 90.985,88.799 91.700 M258.330 91.900 C 267.641 91.960,282.761 91.960,291.930 91.900 C 301.098 91.840,293.480 91.791,275.000 91.791 C 256.520 91.791,249.018 91.840,258.330 91.900 M131.600 93.417 C 132.810 93.719,133.980 93.955,134.200 93.941 C 135.004 93.891,131.370 92.862,130.400 92.865 C 129.850 92.867,130.390 93.115,131.600 93.417 M316.493 100.000 C 316.493 100.770,316.575 101.085,316.676 100.700 C 316.776 100.315,316.776 99.685,316.676 99.300 C 316.575 98.915,316.493 99.230,316.493 100.000 M146.820 101.821 C 147.799 102.933,148.681 103.781,148.781 103.707 C 148.880 103.633,148.079 102.723,147.001 101.686 L 145.040 99.800 146.820 101.821 M258.130 108.300 C 267.551 108.360,282.851 108.360,292.130 108.300 C 301.408 108.240,293.700 108.191,275.000 108.191 C 256.300 108.191,248.708 108.240,258.130 108.300 M171.059 110.200 C 171.585 112.534,172.009 113.501,171.761 111.800 C 171.632 110.920,171.361 109.930,171.158 109.600 C 170.911 109.198,170.878 109.397,171.059 110.200 M172.277 115.800 C 172.400 117.120,172.568 118.275,172.650 118.367 C 172.918 118.664,172.715 115.834,172.380 114.600 C 172.165 113.811,172.130 114.222,172.277 115.800 M77.012 118.917 C 76.841 119.312,76.813 119.747,76.951 119.884 C 77.357 120.290,77.684 119.720,77.497 118.931 C 77.332 118.233,77.310 118.232,77.012 118.917 M76.800 127.000 C 76.800 127.330,76.980 127.600,77.200 127.600 C 77.420 127.600,77.600 127.330,77.600 127.000 C 77.600 126.670,77.420 126.400,77.200 126.400 C 76.980 126.400,76.800 126.670,76.800 127.000 M168.600 142.800 C 168.259 143.460,168.069 144.000,168.179 144.000 C 168.289 144.000,168.659 143.460,169.000 142.800 C 169.341 142.140,169.531 141.600,169.421 141.600 C 169.311 141.600,168.941 142.140,168.600 142.800 M146.400 145.000 C 145.428 145.990,144.723 146.800,144.833 146.800 C 144.943 146.800,145.828 145.990,146.800 145.000 C 147.772 144.010,148.477 143.200,148.367 143.200 C 148.257 143.200,147.372 144.010,146.400 145.000 M107.069 148.032 C 107.566 148.633,110.000 150.164,110.000 149.876 C 110.000 149.783,109.235 149.202,108.300 148.585 C 107.365 147.968,106.811 147.720,107.069 148.032 M316.493 150.000 C 316.493 150.770,316.575 151.085,316.676 150.700 C 316.776 150.315,316.776 149.685,316.676 149.300 C 316.575 148.915,316.493 149.230,316.493 150.000 M121.200 153.600 C 121.530 153.813,122.070 153.988,122.400 153.988 C 122.933 153.988,122.933 153.945,122.400 153.600 C 122.070 153.387,121.530 153.212,121.200 153.212 C 120.667 153.212,120.667 153.255,121.200 153.600 M91.000 156.800 C 92.083 157.900,93.060 158.800,93.170 158.800 C 93.280 158.800,92.483 157.900,91.400 156.800 C 90.317 155.700,89.340 154.800,89.230 154.800 C 89.120 154.800,89.917 155.700,91.000 156.800 M99.328 167.331 C 97.969 167.809,96.724 168.334,96.563 168.498 C 96.322 168.744,100.128 167.567,102.400 166.694 C 104.179 166.010,101.515 166.563,99.328 167.331 M150.400 167.565 C 152.270 168.188,154.160 168.825,154.600 168.980 C 155.332 169.236,155.339 169.221,154.682 168.800 C 153.727 168.188,148.428 166.396,147.630 166.415 C 147.283 166.424,148.530 166.941,150.400 167.565 M119.600 180.800 C 119.600 181.020,119.870 181.200,120.200 181.200 C 120.530 181.200,120.800 181.020,120.800 180.800 C 120.800 180.580,120.530 180.400,120.200 180.400 C 119.870 180.400,119.600 180.580,119.600 180.800 M129.200 180.800 C 129.200 181.020,129.560 181.200,130.000 181.200 C 130.440 181.200,130.800 181.020,130.800 180.800 C 130.800 180.580,130.440 180.400,130.000 180.400 C 129.560 180.400,129.200 180.580,129.200 180.800 M179.200 183.725 C 179.200 183.794,179.785 184.379,180.500 185.025 L 181.800 186.200 180.625 184.900 C 179.530 183.688,179.200 183.416,179.200 183.725 M66.788 187.500 L 64.200 190.200 66.900 187.612 C 68.385 186.188,69.600 184.973,69.600 184.912 C 69.600 184.617,69.193 184.992,66.788 187.500 M185.200 189.800 C 185.946 190.570,186.647 191.200,186.757 191.200 C 186.867 191.200,186.346 190.570,185.600 189.800 C 184.854 189.030,184.153 188.400,184.043 188.400 C 183.933 188.400,184.454 189.030,185.200 189.800 M266.931 191.900 C 280.753 191.958,303.253 191.958,316.931 191.900 C 330.609 191.842,319.300 191.794,291.800 191.794 C 264.300 191.794,253.109 191.842,266.931 191.900 M80.975 197.700 L 79.800 199.000 81.100 197.825 C 81.815 197.179,82.400 196.594,82.400 196.525 C 82.400 196.216,82.070 196.488,80.975 197.700 M191.599 197.500 C 192.122 198.215,192.613 198.800,192.689 198.800 C 192.993 198.800,192.001 197.300,191.345 196.767 C 190.913 196.416,191.010 196.696,191.599 197.500 M170.600 199.200 C 171.683 200.300,172.660 201.200,172.770 201.200 C 172.880 201.200,172.083 200.300,171.000 199.200 C 169.917 198.100,168.940 197.200,168.830 197.200 C 168.720 197.200,169.517 198.100,170.600 199.200 M349.693 200.000 C 349.693 200.770,349.775 201.085,349.876 200.700 C 349.976 200.315,349.976 199.685,349.876 199.300 C 349.775 198.915,349.693 199.230,349.693 200.000 M77.381 201.300 L 75.800 203.000 77.500 201.419 C 79.081 199.948,79.384 199.600,79.081 199.600 C 79.016 199.600,78.251 200.365,77.381 201.300 M266.731 208.300 C 280.663 208.358,303.343 208.358,317.131 208.300 C 330.919 208.242,319.520 208.194,291.800 208.194 C 264.080 208.194,252.799 208.242,266.731 208.300 M70.153 210.500 C 68.776 212.836,68.686 213.035,69.387 212.200 C 70.200 211.232,70.900 210.000,70.638 210.000 C 70.533 210.000,70.315 210.225,70.153 210.500 M48.159 215.837 C 47.828 216.628,47.613 217.440,47.681 217.642 C 47.748 217.844,48.095 217.197,48.452 216.205 C 49.225 214.056,49.014 213.791,48.159 215.837 M45.233 225.033 C 44.975 226.059,44.839 226.972,44.931 227.064 C 45.022 227.156,45.309 226.392,45.567 225.367 C 45.825 224.341,45.961 223.428,45.869 223.336 C 45.778 223.244,45.491 224.008,45.233 225.033 M186.063 223.400 C 186.062 223.620,186.303 224.430,186.600 225.200 C 186.897 225.970,187.145 226.330,187.152 226.000 C 187.158 225.670,186.917 224.860,186.614 224.200 C 186.312 223.540,186.064 223.180,186.063 223.400 M187.465 227.991 C 187.596 228.757,187.944 230.107,188.239 230.991 C 188.749 232.525,188.762 232.535,188.535 231.209 C 188.404 230.443,188.056 229.093,187.761 228.209 C 187.251 226.675,187.238 226.665,187.465 227.991 M311.775 254.100 L 310.600 255.400 311.900 254.225 C 312.615 253.579,313.200 252.994,313.200 252.925 C 313.200 252.616,312.870 252.888,311.775 254.100 M326.971 254.697 C 327.615 255.409,328.230 255.904,328.338 255.796 C 328.445 255.688,328.458 255.555,328.367 255.500 C 328.275 255.445,327.660 254.951,327.000 254.401 L 325.800 253.403 326.971 254.697 M331.200 258.525 C 331.200 258.594,331.785 259.179,332.500 259.825 L 333.800 261.000 332.625 259.700 C 331.530 258.488,331.200 258.216,331.200 258.525 M337.983 264.900 C 338.964 265.945,339.819 266.800,339.883 266.800 C 340.184 266.800,339.866 266.441,338.100 264.783 L 336.200 263.000 337.983 264.900 M388.539 264.854 C 389.068 265.161,389.402 265.158,389.719 264.841 C 390.040 264.520,389.841 264.403,388.980 264.412 C 387.946 264.423,387.891 264.477,388.539 264.854 M313.451 267.600 C 313.838 268.266,321.600 275.854,321.600 275.567 C 321.600 275.467,319.688 273.499,317.351 271.193 C 315.015 268.887,313.260 267.270,313.451 267.600 M344.686 271.216 C 345.614 272.176,346.452 272.880,346.548 272.780 C 346.645 272.681,345.886 271.896,344.862 271.036 L 343.000 269.472 344.686 271.216 M350.200 276.400 C 351.059 277.280,351.852 278.000,351.962 278.000 C 352.072 278.000,351.459 277.280,350.600 276.400 C 349.741 275.520,348.948 274.800,348.838 274.800 C 348.728 274.800,349.341 275.520,350.200 276.400 M355.583 281.300 C 356.564 282.345,357.419 283.200,357.483 283.200 C 357.784 283.200,357.466 282.841,355.700 281.183 L 353.800 279.400 355.583 281.300 M328.400 282.200 C 329.595 283.410,330.663 284.400,330.773 284.400 C 330.883 284.400,329.995 283.410,328.800 282.200 C 327.605 280.990,326.537 280.000,326.427 280.000 C 326.317 280.000,327.205 280.990,328.400 282.200 M361.800 287.145 C 362.680 288.090,363.760 289.053,364.200 289.286 C 364.640 289.518,364.910 289.627,364.800 289.527 C 360.903 285.991,360.220 285.448,361.800 287.145 M336.046 289.700 C 336.144 289.755,337.929 291.420,340.012 293.400 L 343.800 297.000 340.208 293.300 C 338.233 291.265,336.448 289.600,336.242 289.600 C 336.035 289.600,335.947 289.645,336.046 289.700 M368.400 293.400 C 369.146 294.170,369.847 294.800,369.957 294.800 C 370.067 294.800,369.546 294.170,368.800 293.400 C 368.054 292.630,367.353 292.000,367.243 292.000 C 367.133 292.000,367.654 292.630,368.400 293.400 M373.600 298.200 C 374.346 298.970,375.047 299.600,375.157 299.600 C 375.267 299.600,374.746 298.970,374.000 298.200 C 373.254 297.430,372.553 296.800,372.443 296.800 C 372.333 296.800,372.854 297.430,373.600 298.200 M350.000 303.000 C 351.417 304.430,352.667 305.600,352.777 305.600 C 352.887 305.600,351.817 304.430,350.400 303.000 C 348.983 301.570,347.733 300.400,347.623 300.400 C 347.513 300.400,348.583 301.570,350.000 303.000 M379.583 303.700 C 380.564 304.745,381.419 305.600,381.483 305.600 C 381.784 305.600,381.466 305.241,379.700 303.583 L 377.800 301.800 379.583 303.700 M386.200 309.945 C 387.080 310.890,388.160 311.853,388.600 312.086 C 389.040 312.318,389.310 312.427,389.200 312.327 C 385.303 308.791,384.620 308.248,386.200 309.945 M361.400 314.000 C 362.706 315.320,363.865 316.400,363.975 316.400 C 364.085 316.400,363.106 315.320,361.800 314.000 C 360.494 312.680,359.335 311.600,359.225 311.600 C 359.115 311.600,360.094 312.680,361.400 314.000 M392.000 315.400 C 392.746 316.170,393.447 316.800,393.557 316.800 C 393.667 316.800,393.146 316.170,392.400 315.400 C 391.654 314.630,390.953 314.000,390.843 314.000 C 390.733 314.000,391.254 314.630,392.000 315.400 M225.449 321.815 C 225.312 322.173,225.215 322.766,225.234 323.133 C 225.253 323.500,225.427 323.269,225.621 322.620 C 225.998 321.358,225.865 320.733,225.449 321.815 M226.314 329.804 C 226.541 330.247,227.148 330.966,227.663 331.402 C 228.567 332.166,228.565 332.152,227.606 330.997 C 226.013 329.079,225.879 328.955,226.314 329.804 M266.332 333.500 C 285.104 333.557,315.704 333.557,334.332 333.500 C 352.959 333.442,337.600 333.395,300.200 333.395 C 262.800 333.395,247.559 333.442,266.332 333.500 M390.800 336.600 C 389.828 337.590,389.123 338.400,389.233 338.400 C 389.343 338.400,390.228 337.590,391.200 336.600 C 392.172 335.610,392.877 334.800,392.767 334.800 C 392.657 334.800,391.772 335.610,390.800 336.600 M384.975 342.085 C 384.329 342.791,384.087 343.153,384.437 342.888 C 384.787 342.624,385.149 342.482,385.241 342.574 C 385.333 342.666,385.615 342.305,385.867 341.771 C 386.458 340.518,386.384 340.544,384.975 342.085 M378.581 348.100 L 377.000 349.800 378.700 348.219 C 379.635 347.349,380.400 346.584,380.400 346.519 C 380.400 346.216,380.052 346.519,378.581 348.100 M352.175 348.500 L 351.000 349.800 352.300 348.625 C 353.015 347.979,353.600 347.394,353.600 347.325 C 353.600 347.016,353.270 347.288,352.175 348.500 M372.585 353.700 L 370.600 355.800 372.700 353.815 C 374.651 351.971,374.983 351.600,374.685 351.600 C 374.622 351.600,373.677 352.545,372.585 353.700 M366.575 359.300 L 365.400 360.600 366.700 359.425 C 367.415 358.779,368.000 358.194,368.000 358.125 C 368.000 357.816,367.670 358.088,366.575 359.300 M361.042 364.356 C 360.194 365.241,360.059 365.585,360.467 365.820 C 360.760 365.990,360.862 365.977,360.694 365.792 C 360.526 365.607,360.875 364.948,361.469 364.328 C 362.063 363.707,362.460 363.200,362.350 363.200 C 362.240 363.200,361.651 363.720,361.042 364.356 M332.575 366.100 L 331.400 367.400 332.700 366.225 C 333.415 365.579,334.000 364.994,334.000 364.925 C 334.000 364.616,333.670 364.888,332.575 366.100 M328.575 369.700 L 327.400 371.000 328.700 369.825 C 329.415 369.179,330.000 368.594,330.000 368.525 C 330.000 368.216,329.670 368.488,328.575 369.700 M354.386 370.700 L 352.200 373.000 354.500 370.814 C 356.637 368.782,356.983 368.400,356.686 368.400 C 356.624 368.400,355.589 369.435,354.386 370.700 M348.981 375.700 L 347.400 377.400 349.100 375.819 C 350.681 374.348,350.984 374.000,350.681 374.000 C 350.616 374.000,349.851 374.765,348.981 375.700 M342.863 381.333 C 342.190 382.049,342.127 382.267,342.593 382.267 C 342.927 382.267,343.110 382.176,342.999 382.066 C 342.889 381.955,343.097 381.535,343.461 381.132 C 344.435 380.056,343.891 380.239,342.863 381.333 M312.585 384.100 L 310.600 386.200 312.700 384.215 C 313.855 383.123,314.800 382.178,314.800 382.115 C 314.800 381.817,314.429 382.149,312.585 384.100 M336.581 387.300 L 335.000 389.000 336.700 387.419 C 338.281 385.948,338.584 385.600,338.281 385.600 C 338.216 385.600,337.451 386.365,336.581 387.300 M226.412 390.200 C 226.412 391.637,226.521 392.031,226.800 391.600 C 227.013 391.270,227.188 390.640,227.188 390.200 C 227.188 389.760,227.013 389.130,226.800 388.800 C 226.521 388.369,226.412 388.763,226.412 390.200 M330.786 392.700 L 328.600 395.000 330.900 392.814 C 333.037 390.782,333.383 390.400,333.086 390.400 C 333.024 390.400,331.989 391.435,330.786 392.700 " stroke="none" fill="#575757" fill-rule="evenodd"></path><path id="path3" d="M24.998 200.000 C 24.998 292.070,25.044 329.735,25.100 283.700 C 25.156 237.665,25.156 162.335,25.100 116.300 C 25.044 70.265,24.998 107.930,24.998 200.000 M374.997 142.000 C 374.997 201.950,375.043 226.475,375.100 196.500 C 375.157 166.525,375.157 117.475,375.100 87.500 C 375.043 57.525,374.997 82.050,374.997 142.000 M258.530 91.500 C 267.731 91.560,282.671 91.560,291.730 91.500 C 300.788 91.440,293.260 91.391,275.000 91.391 C 256.740 91.391,249.328 91.440,258.530 91.500 M258.530 108.700 C 267.731 108.760,282.671 108.760,291.730 108.700 C 300.788 108.640,293.260 108.591,275.000 108.591 C 256.740 108.591,249.328 108.640,258.530 108.700 M145.781 145.300 L 144.200 147.000 145.900 145.419 C 147.481 143.948,147.784 143.600,147.481 143.600 C 147.416 143.600,146.651 144.365,145.781 145.300 M233.309 150.000 C 233.309 150.990,233.387 151.395,233.482 150.900 C 233.578 150.405,233.578 149.595,233.482 149.100 C 233.387 148.605,233.309 149.010,233.309 150.000 M122.938 153.694 C 123.192 153.856,124.120 153.988,125.000 153.988 C 125.880 153.988,126.808 153.856,127.062 153.694 C 127.316 153.532,126.388 153.400,125.000 153.400 C 123.612 153.400,122.684 153.532,122.938 153.694 M86.300 172.629 C 84.805 173.440,84.896 173.778,86.400 173.000 C 87.060 172.659,87.600 172.294,87.600 172.190 C 87.600 171.932,87.557 171.947,86.300 172.629 M121.400 180.800 C 121.085 181.309,122.012 181.309,122.800 180.800 C 123.288 180.485,123.236 180.411,122.524 180.406 C 122.042 180.403,121.536 180.580,121.400 180.800 M127.600 180.800 C 128.376 181.301,128.800 181.301,128.800 180.800 C 128.800 180.580,128.395 180.403,127.900 180.406 C 127.172 180.411,127.115 180.486,127.600 180.800 M182.529 186.468 C 183.370 187.201,184.540 188.347,185.129 189.016 C 185.718 189.684,186.030 189.954,185.822 189.616 C 185.137 188.502,182.616 185.944,181.800 185.537 C 181.360 185.317,181.688 185.736,182.529 186.468 M266.700 191.500 C 280.395 191.558,302.805 191.558,316.500 191.500 C 330.195 191.442,318.990 191.394,291.600 191.394 C 264.210 191.394,253.005 191.442,266.700 191.500 M51.400 208.000 C 51.059 208.660,50.869 209.200,50.979 209.200 C 51.089 209.200,51.459 208.660,51.800 208.000 C 52.141 207.340,52.331 206.800,52.221 206.800 C 52.111 206.800,51.741 207.340,51.400 208.000 M266.700 208.700 C 280.395 208.758,302.805 208.758,316.500 208.700 C 330.195 208.642,318.990 208.594,291.600 208.594 C 264.210 208.594,253.005 208.642,266.700 208.700 M196.800 240.800 C 196.800 241.020,197.070 241.200,197.400 241.200 C 197.730 241.200,198.000 241.020,198.000 240.800 C 198.000 240.580,197.730 240.400,197.400 240.400 C 197.070 240.400,196.800 240.580,196.800 240.800 M311.200 265.725 C 311.200 265.794,311.785 266.379,312.500 267.025 L 313.800 268.200 312.625 266.900 C 311.530 265.688,311.200 265.416,311.200 265.725 M352.000 277.737 C 352.770 278.537,353.449 279.193,353.509 279.196 C 353.905 279.211,352.126 277.083,351.443 276.725 C 350.900 276.440,351.098 276.800,352.000 277.737 M325.007 279.300 C 326.042 280.455,327.184 281.558,327.544 281.751 C 327.905 281.944,327.126 280.999,325.813 279.651 C 322.886 276.646,322.466 276.464,325.007 279.300 M333.983 287.700 C 334.964 288.745,335.819 289.600,335.883 289.600 C 336.184 289.600,335.866 289.241,334.100 287.583 L 332.200 285.800 333.983 287.700 M337.288 291.419 C 337.886 292.045,338.482 292.452,338.611 292.322 C 338.740 292.193,338.251 291.681,337.523 291.184 L 336.200 290.280 337.288 291.419 M346.229 299.638 C 346.873 300.429,347.481 301.008,347.579 300.925 C 347.678 300.842,347.151 300.195,346.409 299.487 L 345.058 298.200 346.229 299.638 M348.400 302.133 C 348.400 302.206,349.165 302.866,350.100 303.598 L 351.800 304.930 350.422 303.465 C 349.238 302.207,348.400 301.655,348.400 302.133 M356.783 309.700 C 357.764 310.745,358.619 311.600,358.683 311.600 C 358.984 311.600,358.666 311.241,356.900 309.583 L 355.000 307.800 356.783 309.700 M358.999 312.398 C 359.134 312.617,359.640 313.003,360.122 313.256 C 360.994 313.713,360.995 313.710,360.238 312.858 C 359.475 311.998,358.536 311.650,358.999 312.398 M366.744 334.766 C 366.225 335.187,365.890 335.601,366.000 335.687 C 366.110 335.773,366.634 335.429,367.163 334.922 C 368.330 333.806,368.055 333.703,366.744 334.766 M347.000 352.635 L 345.800 353.666 347.100 352.806 C 347.815 352.333,348.400 351.868,348.400 351.773 C 348.400 351.473,348.231 351.578,347.000 352.635 M357.375 368.100 L 356.200 369.400 357.500 368.225 C 358.215 367.579,358.800 366.994,358.800 366.925 C 358.800 366.616,358.470 366.888,357.375 368.100 M25.429 370.000 C 25.576 370.550,25.864 371.270,26.067 371.600 C 26.325 372.017,26.357 371.895,26.171 371.200 C 26.024 370.650,25.736 369.930,25.533 369.600 C 25.275 369.183,25.243 369.305,25.429 370.000 M31.941 374.901 C 32.106 375.066,73.812 375.156,124.621 375.101 L 217.000 375.000 124.320 374.800 C 73.346 374.690,31.775 374.735,31.941 374.901 M318.400 377.800 C 317.992 378.291,318.020 378.400,318.551 378.400 C 318.908 378.400,319.200 378.130,319.200 377.800 C 319.200 377.470,319.132 377.200,319.049 377.200 C 318.966 377.200,318.674 377.470,318.400 377.800 M341.000 383.406 L 339.800 384.409 341.097 383.704 C 341.811 383.317,342.396 382.865,342.397 382.700 C 342.401 382.263,342.319 382.304,341.000 383.406 " stroke="none" fill="#848484" fill-rule="evenodd"></path><path id="path4" d="M31.862 25.100 C 31.760 25.265,107.422 25.400,200.000 25.400 C 292.578 25.400,368.240 25.265,368.138 25.100 C 368.036 24.935,292.374 24.800,200.000 24.800 C 107.626 24.800,31.964 24.935,31.862 25.100 M102.000 143.338 C 102.000 143.400,102.569 143.979,103.265 144.625 C 104.528 145.798,104.529 145.798,103.765 144.717 C 103.128 143.815,102.000 142.934,102.000 143.338 M183.600 187.800 C 184.346 188.570,185.047 189.200,185.157 189.200 C 185.267 189.200,184.746 188.570,184.000 187.800 C 183.254 187.030,182.553 186.400,182.443 186.400 C 182.333 186.400,182.854 187.030,183.600 187.800 M352.800 305.725 C 352.800 305.794,353.385 306.379,354.100 307.025 L 355.400 308.200 354.225 306.900 C 353.130 305.688,352.800 305.416,352.800 305.725 " stroke="none" fill="#7c7c7c" fill-rule="evenodd"></path></g></svg>