<svg id="Layer_1" height="512" viewBox="0 0 512 512" width="512" xmlns="http://www.w3.org/2000/svg" data-name="Layer 1"><path d="m11.5 453.62h490v27.39h-490z" fill="#5fa8ed"/><path d="m11 454h30v27h-30z" fill="#4e7fa0"/><path d="m417.53 263.49h27.94v75h-27.94z" fill="#e374db"/><path d="m367.53 153.49h27.94v135h-27.94z" fill="#efc597"/><path d="m307.53 153.49h27.94v55h-27.94z" fill="#baabd4"/><path d="m247.53 193.49h27.94v55h-27.94z" fill="#5fa8ed"/><path d="m187.53 223.49h27.94v95h-27.94z" fill="#5fcda4"/><path d="m127.53 293.49h27.94v75h-27.94z" fill="#e87187"/><path d="m67.53 273.49h27.94v55h-27.94z" fill="#f3ce7d"/><g fill="#284268"><path d="m501.75 448h-483.75v-29h18a6 6 0 0 0 0-12h-18v-37h7a6 6 0 0 0 0-12h-7v-36h18a6 6 0 0 0 0-12h-18v-36h7a6 6 0 0 0 0-12h-7v-36h18a6 6 0 0 0 0-12h-18v-37h7a6 6 0 0 0 0-12h-7v-36h18a6 6 0 0 0 0-12h-18v-36h7a6 6 0 0 0 0-12h-7v-38a6 6 0 0 0 -12 0v450a5.791 5.791 0 0 0 5.75 6h490a6.218 6.218 0 0 0 6.25-6v-27.385c0-3.315-2.937-5.615-6.25-5.615zm-5.75 27h-478v-15h478z"/><path d="m247.784 254h8.216v34a6 6 0 0 0 12 0v-34h7.716c3.314 0 6.284-2.2 6.284-5.51v-55a6.684 6.684 0 0 0 -6.284-6.49h-8.716v-33a6 6 0 0 0 -12 0v33h-7.216c-3.314 0-5.784 3.177-5.784 6.49v55c0 3.31 2.47 5.51 5.784 5.51zm6.216-55h16v43h-16z"/><path d="m307.784 214h8.216v34a6 6 0 0 0 12 0v-34h7.716c3.314 0 6.284-2.2 6.284-5.51v-55a6.684 6.684 0 0 0 -6.284-6.49h-8.716v-33a6 6 0 0 0 -12 0v33h-7.216c-3.314 0-5.784 3.177-5.784 6.49v55c0 3.31 2.47 5.51 5.784 5.51zm6.216-55h16v43h-16z"/><path d="m367.784 294h8.216v34a6 6 0 0 0 12 0v-34h7.716c3.314 0 6.284-2.2 6.284-5.51v-135a6.684 6.684 0 0 0 -6.284-6.49h-8.716v-33a6 6 0 0 0 -12 0v33h-7.216c-3.314 0-5.784 3.177-5.784 6.49v135c0 3.31 2.47 5.51 5.784 5.51zm6.216-135h16v123h-16z"/><path d="m417.784 344h8.216v34a6 6 0 0 0 12 0v-34h7.716c3.314 0 6.284-2.2 6.284-5.51v-75a6.684 6.684 0 0 0 -6.284-6.49h-8.716v-33a6 6 0 0 0 -12 0v33h-7.216c-3.314 0-5.784 3.177-5.784 6.49v75c0 3.31 2.47 5.51 5.784 5.51zm6.216-75h16v63h-16z"/><path d="m127.784 374h8.216v34a6 6 0 0 0 12 0v-34h7.716c3.314 0 6.284-2.2 6.284-5.51v-75a6.684 6.684 0 0 0 -6.284-6.49h-8.716v-33a6 6 0 0 0 -12 0v33h-7.216c-3.314 0-5.784 3.177-5.784 6.49v75c0 3.31 2.47 5.51 5.784 5.51zm6.216-75h16v63h-16z"/><path d="m187.784 324h8.216v34a6 6 0 0 0 12 0v-34h7.716c3.314 0 6.284-2.2 6.284-5.51v-95a6.684 6.684 0 0 0 -6.284-6.49h-8.716v-33a6 6 0 0 0 -12 0v33h-7.216c-3.314 0-5.784 3.177-5.784 6.49v95c0 3.31 2.47 5.51 5.784 5.51zm6.216-95h16v83h-16z"/><path d="m67.784 334h8.216v34a6 6 0 0 0 12 0v-34h7.716c3.314 0 6.284-2.2 6.284-5.51v-55a6.684 6.684 0 0 0 -6.284-6.49h-8.716v-33a6 6 0 0 0 -12 0v33h-7.216c-3.314 0-5.784 3.177-5.784 6.49v55c0 3.31 2.47 5.51 5.784 5.51zm6.216-55h16v43h-16z"/></g></svg>