                    <svg version="1.1" id="Layer_1" xmlns="http://www.w3.org/2000/svg" x="0px" y="0px"
                         viewBox="0 0 500 500" enable-background="new 0 0 500 500">
                    <g id="OBJECTS">
                        <g>
                            <path fill="#D2F5FC" d="M445.414,298.904c-2.307-8.496-5.911-17.588-10.629-27.021c0.011-0.021,0.022-0.043,0.034-0.065
                                c1.832-3.758,3.406-7.815,4.325-12.271c0.918-4.433,1.118-9.332,0.065-14.171c-0.497-2.417-1.359-4.77-2.42-6.999
                                c-0.236-0.578-0.568-1.089-0.868-1.624l-0.93-1.587l-0.234-0.387l-0.225-0.327l-0.449-0.653l-0.901-1.307
                                c-2.449-3.432-5.063-6.728-7.882-9.787c-11.233-12.318-24.467-22.458-38.498-31.626c-10.868-7.072-22.313-13.456-34.179-19.291
                                c-56.854-48.232-128.936-80.475-186.997-55.085c-14.528,6.352-26.685,16.342-36.749,28.871
                                c-10.858,4.543-21.03,10.442-29.948,17.704c-6.244,5.051-11.863,10.888-16.518,17.265c-4.643,6.397-8.338,13.316-11.118,20.407
                                c-2.786,7.095-4.668,14.355-5.843,21.547c-1.176,7.196-1.653,14.328-1.639,21.293c0.016,6.966,0.523,13.77,1.363,20.375
                                c0.833,6.609,2.027,13.02,3.466,19.219c1.436,6.201,3.083,12.205,4.91,18.002c1.845,5.789,3.84,11.379,5.932,16.776
                                c3.62,9.211,7.547,17.83,11.642,25.881c5.307,36.917,16.396,64.433,29.851,68.56c4.474,1.37,11.989,2.079,21.802,2.152
                                c7.189,6.854,20.074,16.385,41.498,13.123c3.207-0.328,7.045-0.95,11.421-2.002c4.847-1.158,10.339-2.825,16.397-4.979
                                c6.065-2.145,12.683-4.802,19.832-7.891c7.119-3.063,14.748-6.561,22.875-10.441c32.102-5.903,65.579-13.873,95.408-23.739
                                C409.534,359.225,454.436,332.134,445.414,298.904z M88.138,311.893c-1.523-4.42-2.978-8.949-4.328-13.602
                                c-1.604-5.598-3.031-11.364-4.254-17.282c-1.227-5.917-2.215-11.993-2.86-18.198c-0.653-6.203-0.991-12.533-0.88-18.932
                                c0.218-12.774,2.251-25.921,7.291-38.185c2.512-6.121,5.769-11.996,9.805-17.401c4.063-5.396,8.88-10.279,14.37-14.613
                                c2.117-1.68,4.317-3.278,6.588-4.795C92.777,209.6,85.963,264.469,88.138,311.893z M210.027,415.655
                                c-0.5,0.217-0.988,0.425-1.479,0.635c-6.927,2.871-36.615,13.998-53.997,1.708c-1.249-1.007-2.543-2.116-3.868-3.309
                                c17.783-0.404,41.165-2.476,67.009-6.104c3.567-0.5,7.184-1.033,10.836-1.593C221.837,410.308,215.659,413.223,210.027,415.655z
                                M426.066,256.139c-8.266-13.66-18.54-27.722-30.339-41.494c0.87,0.667,1.749,1.327,2.604,2.004
                                c3.004,2.434,5.975,4.881,8.759,7.458c2.822,2.546,5.484,5.196,7.995,7.914c2.54,2.702,4.815,5.54,6.916,8.415l0.766,1.086
                                l0.384,0.543l0.191,0.271c0.059,0.086,0.093,0.157,0.141,0.237l0.544,0.92c0.176,0.308,0.397,0.599,0.515,0.926
                                c0.603,1.26,1.109,2.542,1.392,3.895C426.494,250.766,426.512,253.406,426.066,256.139z"/>
                            
                                <ellipse transform="matrix(-0.5 -0.866 0.866 -0.5 67.0198 278.3653)" fill="#D2F5FC" cx="113.866" cy="119.836" rx="13.818" ry="23.36"/>
                            
                                <ellipse transform="matrix(0.1471 -0.9891 0.9891 0.1471 96.9321 296.4207)" fill="#D2F5FC" cx="220.347" cy="92.004" rx="7.922" ry="13.392"/>
                            
                                <ellipse transform="matrix(-0.2948 -0.9556 0.9556 -0.2948 -49.5113 810.8074)" fill="#D2F5FC" cx="274.432" cy="423.673" rx="10.971" ry="18.547"/>
                            
                                <ellipse transform="matrix(-0.2948 -0.9556 0.9556 -0.2948 20.1048 828.8361)" fill="#D2F5FC" cx="315.887" cy="407" rx="6.55" ry="11.074"/>
                        </g>
                        <g>
                            <path fill="#2B2C84" d="M414.693,106.125h-7.674c-0.547-1.741-1.242-3.413-2.075-5.005l5.43-5.43c1.346-1.351,1.346-3.536,0-4.882
                                L402,82.439c-1.346-1.351-3.531-1.351-4.877,0l-5.429,5.43c-1.594-0.833-3.271-1.534-5.012-2.081v-7.673
                                c0-1.909-1.543-3.452-3.451-3.452h-11.835c-1.909,0-3.452,1.543-3.452,3.452v7.673c-1.741,0.547-3.417,1.248-5.011,2.081l0,0
                                l-5.43-5.43c-1.346-1.351-3.531-1.351-4.877,0l-8.374,8.369c-1.346,1.346-1.346,3.531,0,4.882l5.43,5.43
                                c-0.833,1.593-1.528,3.265-2.075,5.005h-7.674c-1.908,0-3.451,1.549-3.451,3.452v11.835c0,1.909,1.543,3.452,3.451,3.452h7.674
                                c0.547,1.741,1.248,3.417,2.075,5.01l-5.43,5.43c-1.346,1.346-1.346,3.531,0,4.882l8.374,8.369c1.347,1.346,3.531,1.346,4.877,0
                                l5.43-5.43c1.594,0.829,3.271,1.529,5.011,2.077v7.673c0,1.908,1.543,3.452,3.452,3.452h11.835c1.908,0,3.451-1.544,3.451-3.452
                                v-7.673c1.741-0.548,3.417-1.248,5.012-2.077l5.429,5.43c1.346,1.346,3.531,1.346,4.877,0l8.374-8.369
                                c1.346-1.351,1.346-3.536,0-4.882l-5.43-5.43c0.829-1.593,1.528-3.27,2.075-5.01h7.674c1.908,0,3.451-1.543,3.451-3.452v-11.835
                                C418.145,107.674,416.602,106.125,414.693,106.125z M377.313,130.929c-8.523,0-15.434-6.91-15.434-15.434
                                s6.91-15.434,15.434-15.434c8.524,0,15.435,6.91,15.435,15.434S385.836,130.929,377.313,130.929z"/>
                            <g>
                                <g>
                                    <path fill="#FFFFFF" d="M377.313,142.493c-14.888,0-26.998-12.111-26.998-26.998c0-14.887,12.11-26.998,26.998-26.998
                                        c14.887,0,26.997,12.111,26.997,26.998C404.31,130.382,392.199,142.493,377.313,142.493z M377.313,91.148
                                        c-13.425,0-24.347,10.922-24.347,24.347c0,13.425,10.922,24.347,24.347,24.347s24.347-10.922,24.347-24.347
                                        C401.659,102.071,390.737,91.148,377.313,91.148z"/>
                                </g>
                            </g>
                        </g>
                        <g>
                            <path fill="#FFD234" d="M321.414,110.154h-5.375c-0.383-1.219-0.87-2.39-1.454-3.506l3.803-3.803c0.943-0.947,0.943-2.477,0-3.42
                                l-5.865-5.862c-0.943-0.946-2.474-0.946-3.416,0l-3.804,3.803c-1.115-0.583-2.291-1.074-3.51-1.458v-5.375
                                c0-1.337-1.081-2.418-2.418-2.418h-8.291c-1.337,0-2.418,1.081-2.418,2.418v5.375c-1.219,0.383-2.395,0.874-3.51,1.458l0,0
                                l-3.803-3.803c-0.943-0.946-2.474-0.946-3.418,0l-5.865,5.862c-0.942,0.943-0.942,2.473,0,3.42l3.804,3.803
                                c-0.584,1.116-1.071,2.287-1.454,3.506h-5.375c-1.336,0-2.418,1.085-2.418,2.418v8.291c0,1.337,1.082,2.418,2.418,2.418h5.375
                                c0.383,1.22,0.874,2.394,1.454,3.51l-3.804,3.803c-0.942,0.943-0.942,2.473,0,3.42l5.865,5.862c0.943,0.943,2.475,0.943,3.418,0
                                l3.803-3.803c1.115,0.581,2.291,1.071,3.51,1.455v5.375c0,1.337,1.081,2.418,2.418,2.418h8.291c1.337,0,2.418-1.081,2.418-2.418
                                v-5.375c1.219-0.384,2.395-0.874,3.51-1.455l3.804,3.803c0.942,0.943,2.473,0.943,3.416,0l5.865-5.862
                                c0.943-0.947,0.943-2.477,0-3.42l-3.803-3.803c0.58-1.116,1.071-2.29,1.454-3.51h5.375c1.336,0,2.418-1.081,2.418-2.418v-8.291
                                C323.832,111.239,322.75,110.154,321.414,110.154z M295.229,127.529c-5.971,0-10.812-4.84-10.812-10.811
                                c0-5.971,4.841-10.812,10.812-10.812c5.972,0,10.812,4.84,10.812,10.812C306.04,122.689,301.2,127.529,295.229,127.529z"/>
                            <g>
                                <g>
                                    <path fill="#FFFFFF" d="M295.229,135.629c-10.428,0-18.912-8.483-18.912-18.911c0-10.428,8.484-18.912,18.912-18.912
                                        c10.429,0,18.912,8.483,18.912,18.912C314.141,127.146,305.657,135.629,295.229,135.629z M295.229,99.664
                                        c-9.403,0-17.054,7.65-17.054,17.054c0,9.404,7.65,17.054,17.054,17.054c9.404,0,17.055-7.65,17.055-17.054
                                        C312.283,107.314,304.633,99.664,295.229,99.664z"/>
                                </g>
                            </g>
                        </g>
                        <g>
                            <path fill="#81C7CF" d="M399.292,378.373H393c-0.449-1.428-1.019-2.799-1.702-4.104l4.452-4.453c1.104-1.107,1.104-2.897,0-4.002
                                l-6.866-6.862c-1.104-1.108-2.896-1.108-4,0l-4.452,4.452c-1.307-0.684-2.682-1.258-4.108-1.707v-6.293
                                c0-1.563-1.267-2.829-2.831-2.829h-9.705c-1.565,0-2.831,1.266-2.831,2.829v6.293c-1.427,0.449-2.802,1.023-4.108,1.707l0,0
                                l-4.451-4.452c-1.104-1.108-2.896-1.108-4,0l-6.866,6.862c-1.104,1.104-1.104,2.895,0,4.002l4.453,4.453
                                c-0.685,1.306-1.254,2.678-1.703,4.104h-6.292c-1.565,0-2.831,1.271-2.831,2.83v9.706c0,1.563,1.266,2.831,2.831,2.831h6.292
                                c0.449,1.428,1.022,2.802,1.703,4.107l-4.453,4.452c-1.104,1.104-1.104,2.896,0,4.003l6.866,6.862c1.104,1.104,2.896,1.104,4,0
                                l4.451-4.452c1.307,0.68,2.682,1.253,4.108,1.703v6.291c0,1.564,1.266,2.831,2.831,2.831h9.705c1.564,0,2.831-1.267,2.831-2.831
                                v-6.291c1.427-0.45,2.802-1.023,4.108-1.703l4.452,4.452c1.104,1.104,2.896,1.104,4,0l6.866-6.862
                                c1.104-1.107,1.104-2.898,0-4.003l-4.452-4.452c0.679-1.307,1.253-2.681,1.702-4.107h6.292c1.565,0,2.831-1.268,2.831-2.831
                                v-9.706C402.123,379.645,400.857,378.373,399.292,378.373z M368.64,398.712c-6.989,0-12.655-5.666-12.655-12.655
                                c0-6.988,5.666-12.656,12.655-12.656c6.99,0,12.656,5.666,12.656,12.656C381.296,393.045,375.63,398.712,368.64,398.712z"/>
                            <g>
                                <g>
                                    <path fill="#FFFFFF" d="M368.64,408.194c-12.208,0-22.138-9.932-22.138-22.138c0-12.207,9.931-22.139,22.138-22.139
                                        s22.139,9.932,22.139,22.139C390.778,398.263,380.847,408.194,368.64,408.194z M368.64,366.093
                                        c-11.008,0-19.964,8.955-19.964,19.964s8.956,19.964,19.964,19.964c11.009,0,19.964-8.955,19.964-19.964
                                        S379.648,366.093,368.64,366.093z"/>
                                </g>
                            </g>
                        </g>
                        <g>
                            <path fill="#008489" d="M130.31,137.73h-6.179c-0.44-1.402-1-2.748-1.671-4.031l4.372-4.372c1.084-1.088,1.084-2.847,0-3.932
                                l-6.743-6.739c-1.084-1.088-2.843-1.088-3.927,0l-4.372,4.372c-1.283-0.671-2.633-1.235-4.035-1.676v-6.179
                                c0-1.537-1.243-2.78-2.78-2.78h-9.531c-1.537,0-2.78,1.243-2.78,2.78v6.179c-1.402,0.441-2.752,1.005-4.034,1.676l0,0
                                l-4.372-4.372c-1.084-1.088-2.843-1.088-3.927,0l-6.743,6.739c-1.084,1.084-1.084,2.843,0,3.932l4.372,4.372
                                c-0.671,1.283-1.231,2.629-1.672,4.031h-6.179c-1.537,0-2.78,1.247-2.78,2.78v9.53c0,1.537,1.243,2.78,2.78,2.78h6.179
                                c0.441,1.402,1.004,2.752,1.672,4.035l-4.372,4.372c-1.084,1.084-1.084,2.844,0,3.932l6.743,6.739
                                c1.084,1.084,2.843,1.084,3.927,0l4.373-4.372c1.282,0.667,2.632,1.231,4.034,1.672v6.179c0,1.537,1.243,2.78,2.78,2.78h9.531
                                c1.537,0,2.78-1.243,2.78-2.78v-6.179c1.402-0.441,2.752-1.005,4.035-1.672l4.372,4.372c1.084,1.084,2.843,1.084,3.927,0
                                l6.743-6.739c1.084-1.088,1.084-2.847,0-3.932l-4.372-4.372c0.667-1.283,1.231-2.633,1.671-4.035h6.179
                                c1.537,0,2.78-1.243,2.78-2.78v-9.53C133.09,138.977,131.847,137.73,130.31,137.73z M100.209,157.704
                                c-6.864,0-12.429-5.564-12.429-12.429c0-6.864,5.564-12.428,12.429-12.428c6.864,0,12.428,5.564,12.428,12.428
                                C112.638,152.139,107.073,157.704,100.209,157.704z"/>
                            <g>
                                <g>
                                    <path fill="#FFFFFF" d="M100.209,167.015c-11.987,0-21.74-9.752-21.74-21.74c0-11.988,9.752-21.74,21.74-21.74
                                        s21.74,9.752,21.74,21.74C121.949,157.263,112.197,167.015,100.209,167.015z M100.209,125.67
                                        c-10.81,0-19.605,8.795-19.605,19.605s8.795,19.604,19.605,19.604c10.811,0,19.605-8.794,19.605-19.604
                                        S111.02,125.67,100.209,125.67z"/>
                                </g>
                            </g>
                        </g>
                        <g>
                            <g>
                                <path fill="#FFFFFF" d="M170.772,150.925c-7.512,0-13.623-6.111-13.623-13.623v-6.268h4.478v6.268
                                    c0,5.042,4.102,9.146,9.145,9.146s9.145-4.102,9.145-9.146v-19.805c0-7.511,6.111-13.623,13.623-13.623h5.004
                                    c7.512,0,13.623,6.111,13.623,13.623v50.462h-4.478v-50.462c0-5.042-4.102-9.145-9.145-9.145h-5.004
                                    c-5.042,0-9.145,4.102-9.145,9.145v19.805C184.396,144.813,178.284,150.925,170.772,150.925z"/>
                            </g>
                            <g>
                                <path fill="#FF9A00" d="M181.224,86.352c0-12.572-10.625-22.663-23.386-21.781c-10.689,0.738-19.382,9.345-20.216,20.028
                                    c-0.399,5.115,0.966,9.894,3.551,13.794c4.398,6.636,6.744,14.42,6.744,22.381v0.001h22.944l0,0
                                    c0-7.904,2.232-15.687,6.649-22.241C179.855,95.054,181.224,90.863,181.224,86.352z"/>
                                <path fill="#FFFFFF" d="M161.75,86.583v5.624h-0.788h-3.149h-0.787v-5.624h-7.76v7.648h5.736v29.354h2.024V94.232h0.787h3.149
                                    h0.788v29.354h2.024V94.232h5.736v-7.648L161.75,86.583L161.75,86.583z M155.002,92.208h-3.711v-3.6h3.711V92.208z
                                    M167.486,92.208h-3.711v-3.6h3.711V92.208z"/>
                                <g>
                                    <rect x="153.99" y="131.684" fill="#004D47" width="10.797" height="5.173"/>
                                    <path fill="#008489" d="M166.094,134.046h-13.411c-2.632,0-4.767-2.134-4.767-4.766v-8.505h22.944v8.505
                                        C170.86,131.912,168.727,134.046,166.094,134.046z"/>
                                </g>
                            </g>
                        </g>
                        <g>
                            <polygon fill="#F15381" points="380.375,199.092 349.634,204.729 356.377,212.653 335.932,230.05 312.152,203.501 
                                271.674,237.667 278.413,245.651 311.138,218.029 334.945,244.607 363.147,220.61 369.89,228.535 		"/>
                            <polygon fill="#D1EEE7" points="364.291,170.905 339.803,175.396 345.174,181.708 328.889,195.565 309.947,174.417 
                                277.704,201.633 283.07,207.993 309.14,185.99 328.103,207.161 350.567,188.046 355.938,194.358 		"/>
                        </g>
                        <g>
                            <path fill="#FFFFFF" d="M429.592,216.779c-1.236,0-2.239,1.002-2.239,2.239v2.239c0,1.237,1.003,2.239,2.239,2.239
                                c1.237,0,2.239-1.002,2.239-2.239v-2.239C431.831,217.782,430.829,216.779,429.592,216.779z"/>
                            <path fill="#FFFFFF" d="M429.592,271.805c-1.236,0-2.239,1.002-2.239,2.238v4.8c0,1.236,1.003,2.239,2.239,2.239
                                c1.237,0,2.239-1.003,2.239-2.239v-4.8C431.831,272.807,430.829,271.805,429.592,271.805z"/>
                            <path fill="#FFFFFF" d="M429.592,233.415c-1.236,0-2.239,1.002-2.239,2.239v4.798c0,1.237,1.003,2.239,2.239,2.239
                                c1.237,0,2.239-1.002,2.239-2.239v-4.798C431.831,234.417,430.829,233.415,429.592,233.415z"/>
                            <path fill="#FFFFFF" d="M429.592,252.609c-1.236,0-2.239,1.002-2.239,2.238v4.799c0,1.236,1.003,2.24,2.239,2.24
                                c1.237,0,2.239-1.004,2.239-2.24v-4.799C431.831,253.611,430.829,252.609,429.592,252.609z"/>
                            <path fill="#FFFFFF" d="M429.592,290.999c-1.236,0-2.239,1.003-2.239,2.239c-1.236,0-2.238,1.003-2.238,2.238
                                c0,1.237,1.002,2.239,2.238,2.239h4.479v-4.479C431.831,292.002,430.829,290.999,429.592,290.999z"/>
                            <path fill="#FFFFFF" d="M367.601,293.238h-3.982c-1.237,0-2.239,1.003-2.239,2.238c0,1.237,1.002,2.239,2.239,2.239h3.982
                                c1.237,0,2.239-1.002,2.239-2.239C369.84,294.241,368.838,293.238,367.601,293.238z"/>
                            <path fill="#FFFFFF" d="M383.535,293.238h-3.984c-1.235,0-2.239,1.003-2.239,2.238c0,1.237,1.003,2.239,2.239,2.239h3.984
                                c1.237,0,2.239-1.002,2.239-2.239C385.774,294.241,384.772,293.238,383.535,293.238z"/>
                            <path fill="#FFFFFF" d="M399.469,293.238h-3.983c-1.236,0-2.239,1.003-2.239,2.238c0,1.237,1.002,2.239,2.239,2.239h3.983
                                c1.237,0,2.239-1.002,2.239-2.239C401.708,294.241,400.706,293.238,399.469,293.238z"/>
                            <path fill="#FFFFFF" d="M415.402,293.238h-3.983c-1.237,0-2.239,1.003-2.239,2.238c0,1.237,1.002,2.239,2.239,2.239h3.983
                                c1.236,0,2.238-1.002,2.238-2.239C417.642,294.241,416.639,293.238,415.402,293.238z"/>
                            <path fill="#FFFFFF" d="M351.667,293.238h-2.239c-1.236,0-2.238,1.003-2.238,2.238c0,1.237,1.002,2.239,2.238,2.239h2.239
                                c1.237,0,2.239-1.002,2.239-2.239C353.906,294.241,352.904,293.238,351.667,293.238z"/>
                        </g>
                        <g>
                            
                                <rect x="39.674" y="243.8" transform="matrix(-0.9574 0.2888 -0.2888 -0.9574 259.0682 522.5659)" fill="#428BCA" width="102.62" height="73.188"/>
                            <g>
                                
                                    <rect x="47.241" y="256.345" transform="matrix(-0.9574 0.2888 -0.2888 -0.9574 262.1815 529.1849)" fill="#FFFFFF" width="89.624" height="55.177"/>
                                <g>
                                    <circle fill="#FFFFFF" cx="105.373" cy="245.826" r="2.353"/>
                                    <circle fill="#FFFFFF" cx="114.328" cy="243.125" r="2.353"/>
                                    <circle fill="#FFFFFF" cx="123.284" cy="240.423" r="2.352"/>
                                </g>
                            </g>
                            <g>
                                
                                    <rect x="64.601" y="293.586" transform="matrix(-0.9573 0.2889 -0.2889 -0.9573 224.2831 573.2451)" fill="#FFD234" width="10.457" height="19.182"/>
                                
                                    <rect x="80.521" y="280.168" transform="matrix(-0.9573 0.2889 -0.2889 -0.9573 252.7846 550.6284)" fill="#FFD234" width="10.457" height="27.609"/>
                                
                                    <rect x="98.889" y="283.376" transform="matrix(-0.9574 0.2888 -0.2888 -0.9574 288.3806 543.2466)" fill="#FFD234" width="10.456" height="19.041"/>
                                
                                    <rect x="112.543" y="254.58" transform="matrix(-0.9574 0.2888 -0.2888 -0.9574 310.2772 506.563)" fill="#FFD234" width="10.456" height="43.179"/>
                            </g>
                            <g>
                                <g>
                                    <circle fill="#EBEBEB" cx="50.224" cy="274.318" r="1.932"/>
                                    
                                        <rect x="54.016" y="269.162" transform="matrix(-0.9574 0.2888 -0.2888 -0.9574 204.8423 509.6145)" fill="#EBEBEB" width="21.621" height="1.513"/>
                                </g>
                                <g>
                                    <circle fill="#EBEBEB" cx="51.814" cy="279.589" r="1.932"/>
                                    
                                        <rect x="55.607" y="274.434" transform="matrix(-0.9574 0.2888 -0.2888 -0.9574 209.4786 519.4734)" fill="#EBEBEB" width="21.621" height="1.513"/>
                                </g>
                            </g>
                        </g>
                        <g>
                            <path fill="#FFFFFF" d="M171.431,200.029c0.005-0.044,0.026-0.084,0.026-0.13v-23.573c0-0.038-0.018-0.07-0.021-0.107
                                c-0.007-0.077-0.022-0.148-0.045-0.223c-0.024-0.077-0.053-0.146-0.091-0.215c-0.018-0.032-0.021-0.067-0.042-0.098
                                c-0.02-0.029-0.05-0.043-0.072-0.07c-0.052-0.063-0.107-0.116-0.171-0.166c-0.055-0.043-0.109-0.083-0.169-0.115
                                c-0.067-0.036-0.136-0.061-0.209-0.083c-0.071-0.021-0.139-0.036-0.212-0.042c-0.038-0.004-0.071-0.022-0.109-0.022h-34.523
                                c-0.037,0-0.068,0.017-0.104,0.021c-0.077,0.007-0.149,0.022-0.223,0.044c-0.071,0.022-0.137,0.045-0.201,0.08
                                c-0.063,0.033-0.119,0.072-0.175,0.118c-0.063,0.05-0.118,0.103-0.169,0.165c-0.022,0.027-0.053,0.042-0.072,0.071
                                c-0.021,0.031-0.024,0.066-0.042,0.098c-0.039,0.069-0.067,0.138-0.091,0.215c-0.023,0.075-0.038,0.146-0.045,0.223
                                c-0.004,0.037-0.022,0.069-0.022,0.107v8.316h-9.869c-0.014,0-0.024,0.007-0.038,0.008c-0.086,0.002-0.168,0.028-0.252,0.051
                                c-0.061,0.016-0.125,0.023-0.181,0.049c-0.06,0.027-0.11,0.073-0.166,0.112c-0.069,0.047-0.139,0.09-0.195,0.151
                                c-0.009,0.009-0.021,0.013-0.03,0.023c-0.036,0.041-0.049,0.092-0.078,0.137c-0.045,0.069-0.092,0.135-0.122,0.214
                                c-0.029,0.078-0.036,0.157-0.048,0.237c-0.008,0.055-0.032,0.103-0.032,0.16v23.579c0,0.631,0.512,1.143,1.143,1.143h34.523
                                c0.631,0,1.142-0.511,1.142-1.143v-4.582c0.011-0.076,0.005-0.149,0-0.225v-3.516h9.87c0.171,0,0.329-0.043,0.475-0.111
                                c0.04-0.018,0.071-0.049,0.108-0.072c0.105-0.064,0.199-0.138,0.279-0.231c0.015-0.019,0.039-0.024,0.053-0.044
                                c0.027-0.036,0.033-0.079,0.055-0.117c0.041-0.069,0.075-0.136,0.101-0.212C171.41,200.179,171.422,200.106,171.431,200.029z
                                M160.445,191.091v-5.306c0-0.057-0.024-0.105-0.032-0.16c-0.012-0.08-0.019-0.16-0.048-0.237
                                c-0.03-0.079-0.077-0.145-0.123-0.214c-0.029-0.045-0.042-0.096-0.078-0.137c-0.009-0.01-0.021-0.014-0.03-0.023
                                c-0.058-0.063-0.129-0.106-0.2-0.155c-0.014-0.009-0.027-0.022-0.041-0.032l9.278-6.337v19.128L160.445,191.091z M125.921,188.29
                                l10.414,9.045l-10.414,5.412V188.29z M139.083,196.696c-0.001,0-0.001-0.001-0.002-0.002l-11.244-9.767h7.932
                                c0.008,0,0.015,0.004,0.022,0.004s0.014-0.004,0.022-0.004h13.804c0.01,0,0.021,0.004,0.03,0.004c0.013,0,0.025-0.004,0.038-0.004
                                h6.561l-11.244,9.766c-0.001,0.001-0.002,0.002-0.003,0.003l-2.958,2.568L139.083,196.696z M156.11,184.643h-6.115l-10.505-7.174
                                h27.125L156.11,184.643z M158.16,188.29v14.447l-10.413-5.402L158.16,188.29z M136.933,178.49l9.009,6.153h-9.009V178.49z
                                M125.921,208.222v-2.9l12.269-6.375l3.102,2.694c0.215,0.187,0.482,0.28,0.749,0.28s0.535-0.094,0.75-0.28l3.102-2.694
                                l12.268,6.365v2.912h-32.24V208.222z M160.445,193.944l6.435,4.813h-6.435V193.944z"/>
                        </g>
                        <g>
                            <g>
                                <path fill="#FF769B" d="M151.78,386.938l4.578-13.242c-0.232,0.445,13.002,5.658,13.002,5.658l-10.605-11.276
                                    c0,0-0.018,0.034-0.052,0.099l0.052-0.099l-37.458-10.25L151.78,386.938z M158.055,369.413l0.006-0.013
                                    C158.059,369.404,158.057,369.408,158.055,369.413z"/>
                                <polygon fill="#F15381" points="169.36,379.354 161.426,363.271 121.296,357.827 158.755,368.077 			"/>
                                <polygon fill="#FF769B" points="161.426,363.271 169.664,353.039 121.296,357.827 			"/>
                            </g>
                            <g>
                                <g>
                                    <path fill="#FFFFFF" d="M177.7,380.598c-0.327,0.123-0.703,0.118-1.045-0.041c-1.314-0.619-2.042-1.016-2.072-1.031
                                        c-0.652-0.354-0.892-1.172-0.537-1.822c0.354-0.651,1.17-0.893,1.822-0.537c0.007,0.004,0.697,0.379,1.931,0.959
                                        c0.671,0.316,0.959,1.117,0.643,1.788C178.288,380.242,178.017,380.479,177.7,380.598z"/>
                                </g>
                                <g>
                                    <path fill="#FFFFFF" d="M228.23,385.087c-0.658,0.247-1.317,0.479-1.976,0.694c-0.706,0.229-1.464-0.155-1.694-0.861
                                        c-0.229-0.705,0.153-1.438,0.86-1.693c1.339-0.438,2.686-0.925,4-1.61c0.661-0.331,1.469-0.087,1.813,0.571
                                        c0.342,0.658,0.087,1.469-0.571,1.813C229.862,384.415,229.045,384.781,228.23,385.087z M217.456,387.752
                                        c-0.095,0.035-0.195,0.061-0.299,0.074c-1.512,0.199-3.072,0.338-4.636,0.413c-0.741,0.034-1.371-0.536-1.406-1.278
                                        c-0.036-0.74,0.538-1.368,1.277-1.404c1.491-0.072,2.977-0.205,4.416-0.395c0.735-0.098,1.411,0.422,1.507,1.156
                                        C218.396,386.95,218.027,387.537,217.456,387.752z M237.667,378.535c-0.469,0.176-1.018,0.082-1.403-0.288
                                        c-0.535-0.515-0.553-1.364-0.039-1.899c0.966-1.008,1.93-2.132,2.863-3.341c0.452-0.589,1.297-0.696,1.884-0.241
                                        c0.587,0.451,0.696,1.297,0.243,1.883c-0.992,1.285-2.018,2.482-3.051,3.56C238.019,378.357,237.849,378.466,237.667,378.535z
                                        M203.847,387.908c-0.186,0.07-0.391,0.1-0.603,0.078c-1.504-0.146-3.049-0.35-4.593-0.602c-0.732-0.119-1.229-0.81-1.109-1.542
                                        c0.12-0.731,0.811-1.229,1.542-1.108c1.487,0.242,2.974,0.438,4.421,0.578c0.739,0.072,1.279,0.729,1.207,1.469
                                        C204.661,387.309,204.311,387.732,203.847,387.908z M245.587,367.473c-0.357,0.135-0.769,0.115-1.128-0.084
                                        c-0.647-0.363-0.879-1.182-0.518-1.83c0.7-1.252,1.399-2.588,2.078-3.968c0.327-0.665,1.132-0.938,1.798-0.61
                                        c0.666,0.326,0.94,1.133,0.613,1.799c-0.699,1.42-1.42,2.798-2.144,4.092C246.125,367.158,245.874,367.364,245.587,367.473z
                                        M190.47,385.334c-0.259,0.098-0.55,0.116-0.837,0.035c-1.465-0.414-2.949-0.876-4.409-1.374
                                        c-0.703-0.239-1.078-1.002-0.838-1.704c0.239-0.703,1.002-1.078,1.705-0.839c1.416,0.481,2.853,0.93,4.273,1.331
                                        c0.714,0.201,1.13,0.943,0.928,1.658C191.17,384.869,190.856,385.189,190.47,385.334z M251.355,355.117
                                        c-0.299,0.111-0.643,0.117-0.964-0.01c-0.691-0.271-1.029-1.051-0.757-1.741c0.533-1.353,1.067-2.772,1.587-4.222
                                        c0.25-0.699,1.02-1.063,1.719-0.812c0.697,0.25,1.062,1.021,0.811,1.718c-0.529,1.477-1.072,2.922-1.616,4.301
                                        C251.988,354.721,251.7,354.988,251.355,355.117z M255.789,342.206c-0.266,0.101-0.564,0.117-0.857,0.028
                                        c-0.709-0.213-1.113-0.961-0.9-1.672c0.439-1.47,0.855-2.92,1.246-4.346c0.195-0.716,0.935-1.136,1.65-0.939
                                        c0.715,0.195,1.137,0.937,0.94,1.65c-0.396,1.444-0.817,2.915-1.263,4.405C256.479,341.752,256.168,342.063,255.789,342.206z"/>
                                </g>
                            </g>
                        </g>
                        <g>
                            <g>
                                <g>
                                    <g>
                                        <path fill="#FFC7CA" d="M254.377,257.248c0,0,9.031,45.23,43.961,58.441c0,0,5.822-4.703,9.854-3.808
                                            c4.029,0.896,11.419,9.628,11.419,9.628h-22.839c0,0-37.394-3.582-56.65-40.08l-1.119-13.658L254.377,257.248z"/>
                                        <path fill="#389E81" d="M234.673,218.735c0,0,22.688,28.885,25.376,36.498c0,0-14.33,11.867-18.809,15.897
                                            c0,0-16.994-33.293-14.106-42.543C229.822,219.98,234.673,218.735,234.673,218.735z"/>
                                        <path fill="#47B79B" d="M200.34,211.271c0,0-34.333,4.777-40.304,27.466c-5.971,22.69,40.528,91.058,40.528,91.058h53.813
                                            c0,0-13.136-106.881-19.704-111.061C228.105,214.555,219.447,207.39,200.34,211.271z"/>
                                        <g>
                                            <path fill="#FFC7CA" d="M218.85,198.135l-1.288,20.984c-4.846,2.991-22.295-2.775-22.295-2.775l2.382-23.045L218.85,198.135z"
                                                />
                                            <g>
                                                <path fill="#FFC7CA" d="M238.106,168.579c0,0-0.634,43.779-24.63,38.065c-28.213-6.717-15.226-47.024-15.226-47.024
                                                    L238.106,168.579z"/>
                                                <path fill="#FFC7CA" d="M198.25,180.819c0,0-1.94-4.329-5.075-2.538c-3.135,1.791-3.881,14.061,4.478,15.016L198.25,180.819z
                                                    "/>
                                            </g>
                                            <path fill="#2B2C84" d="M193.175,178.282c0,0,4.627-0.747,6.195,3.508l2.463-15.898c0,0,15.725,4.479,24.32,0
                                                c0,0,6.524,8.603,11.478,9.452c4.954,0.848,12.288-19.528,0-23.558c0,0-27.388-33.587-43.013,0
                                                c0,0-10.251,0.672-11.594,12.987c-1.343,12.315,8.021,20.801,8.021,20.801S190.786,179.476,193.175,178.282z"/>
                                        </g>
                                        <g>
                                            <path fill="#FFC7CA" d="M198.026,294.418c0,0,30.453,31.124,60.457,31.124c30.004,0,31.349,0,31.349,0h28.213
                                                c0,0-13.883-18.138-20.601-15.563c-6.717,2.576-11.194,6.383-11.194,6.383s-42.841-8.119-69.562-39.887
                                                C216.687,276.477,203.73,276.508,198.026,294.418z"/>
                                            <path fill="#389E81" d="M160.036,238.738c0,0,0.597,42.394,37.02,61.501c0,0,14.481-21.554,19.631-23.765
                                                c0,0-17.898-40.665-29.781-48.484C180.862,224.013,168.395,225.303,160.036,238.738z"/>
                                        </g>
                                    </g>
                                    <path fill="#10638C" d="M256.766,325.542c0,0-1.492,1.567-1.344,4.254h96.581c0,0-1.045-4.03-2.388-4.254H256.766z"/>
                                    <polygon fill="#10638C" points="318.043,329.796 343.196,251.874 381.411,251.874 356.034,329.796 				"/>
                                    
                                        <ellipse transform="matrix(0.2369 -0.9715 0.9715 0.2369 -5.6036 567.1353)" fill="#FFFFFF" cx="358.219" cy="287.135" rx="5.709" ry="3.582"/>
                                </g>
                                <path fill="#428BCA" d="M396.96,339.648H113.422l0,0c0-5.441,4.411-9.854,9.853-9.854h263.834
                                    C392.55,329.796,396.96,334.207,396.96,339.648L396.96,339.648z"/>
                                <g>
                                    <path fill="#FF9A00" d="M197.49,329.796h-45.501c-4.699,0-8.509-3.81-8.509-8.509l0,0c0-4.699,3.81-8.51,8.509-8.51h45.501
                                        V329.796L197.49,329.796z"/>
                                    <path fill="#FFFFFF" d="M197.49,325.037h-46.194c-2.071,0-3.75-1.68-3.75-3.75l0,0c0-2.071,1.679-3.749,3.75-3.749h46.194
                                        V325.037z"/>
                                </g>
                                <g>
                                    <path fill="#008489" d="M197.49,312.777h-45.501c-4.699,0-8.509-3.81-8.509-8.508l0,0c0-4.699,3.81-8.51,8.509-8.51h45.501
                                        V312.777L197.49,312.777z"/>
                                    <path fill="#FFFFFF" d="M197.49,308.02h-46.194c-2.071,0-3.75-1.679-3.75-3.75l0,0c0-2.069,1.679-3.748,3.75-3.748h46.194
                                        V308.02z"/>
                                </g>
                            </g>
                            <path fill="#FF9A00" d="M147.864,233.2l0.492,1.57l0.491-1.57c0.633-2.021,1.947-3.712,3.681-4.736l0,0l0,0
                                c-1.734-1.023-3.048-2.714-3.681-4.735l-0.491-1.57l-0.492,1.57c-0.632,2.021-1.946,3.712-3.681,4.735l0,0l0,0
                                C145.917,229.488,147.231,231.178,147.864,233.2z"/>
                            <path fill="#FF9A00" d="M249.668,212.542l0.93,2.969l0.928-2.969c1.197-3.822,3.683-7.02,6.961-8.955l0,0l0,0
                                c-3.279-1.936-5.764-5.133-6.961-8.955l-0.928-2.969l-0.93,2.969c-1.196,3.822-3.681,7.019-6.961,8.955l0,0l0,0
                                C245.987,205.522,248.472,208.719,249.668,212.542z"/>
                            <path fill="#FF9A00" d="M315.167,275.947l0.929,2.969l0.93-2.969c1.196-3.823,3.682-7.021,6.961-8.956l0,0l0,0
                                c-3.28-1.937-5.766-5.132-6.961-8.955l-0.93-2.97l-0.929,2.97c-1.196,3.823-3.681,7.021-6.961,8.955l0,0l0,0
                                C311.486,268.928,313.971,272.124,315.167,275.947z"/>
                            <path fill="#FF9A00" d="M299.79,295.247l0.608,1.944l0.608-1.944c0.784-2.505,2.412-4.601,4.562-5.867l0,0l0,0
                                c-2.148-1.269-3.776-3.362-4.562-5.866l-0.608-1.945l-0.608,1.945c-0.784,2.504-2.412,4.598-4.562,5.866l0,0l0,0
                                C297.378,290.646,299.006,292.742,299.79,295.247z"/>
                            <path fill="#FF9A00" d="M261.484,175.288l0.608,1.945l0.608-1.945c0.783-2.504,2.412-4.599,4.561-5.867l0,0l0,0
                                c-2.148-1.268-3.777-3.363-4.561-5.867l-0.608-1.945l-0.608,1.945c-0.784,2.504-2.412,4.599-4.562,5.867l0,0l0,0
                                C259.072,170.689,260.7,172.783,261.484,175.288z"/>
                            <path fill="#FF9A00" d="M106.633,222.852l0.857,2.74l0.857-2.74c1.104-3.527,3.397-6.478,6.424-8.264l0,0l0,0
                                c-3.027-1.786-5.32-4.736-6.424-8.264l-0.857-2.74l-0.857,2.74c-1.104,3.527-3.397,6.478-6.423,8.264l0,0l0,0
                                C103.236,216.374,105.529,219.324,106.633,222.852z"/>
                        </g>
                        <g>
                            <g>
                                <rect x="394.961" y="162.974" fill="#81C7CF" width="66.278" height="81.226"/>
                                <path fill="#81C7CF" d="M468.7,171.787v5.875h-7.461v-14.688C465.476,163.672,468.7,167.353,468.7,171.787z"/>
                            </g>
                            <g>
                                <g>
                                    <g>
                                        <rect x="402.454" y="186.472" fill="#339295" width="10.495" height="10.495"/>
                                    </g>
                                    <g>
                                        <rect x="418.145" y="186.472" fill="#2B2C84" width="35.604" height="2.616"/>
                                        <rect x="418.145" y="194.351" fill="#2B2C84" width="35.604" height="2.616"/>
                                    </g>
                                </g>
                                <g>
                                    <rect x="402.454" y="210.206" fill="#339295" width="10.495" height="10.495"/>
                                    <g>
                                        <rect x="418.145" y="210.206" fill="#2B2C84" width="35.604" height="2.616"/>
                                        <rect x="418.145" y="218.085" fill="#2B2C84" width="35.604" height="2.616"/>
                                    </g>
                                </g>
                            </g>
                            <g>
                                <polygon fill="#FFFFFF" points="408.596,193.893 404.233,190.122 405.991,188.089 408.233,190.027 412.792,184.282 
                                    414.897,185.952 			"/>
                            </g>
                            <g>
                                <polygon fill="#FFFFFF" points="408.596,217.031 404.233,213.259 405.991,211.227 408.233,213.165 412.792,207.419 
                                    414.897,209.09 			"/>
                            </g>
                        </g>
                    </g>
                    <g id="DESIGNED_BY_FREEPIK">
                    </g>
                    </svg>